<svg width="21" height="22" viewBox="0 0 21 22" fill="none" xmlns="http://www.w3.org/2000/svg">
<path d="M1.75427 14.6863C2.09554 14.7666 2.44706 14.8447 3.06655 14.9525C4.30646 15.1681 6.03064 15.3835 7.96815 15.3835H18.9056C18.9056 15.8667 18.5139 16.2585 18.0306 16.2585H7.96815C5.96817 16.2585 4.19235 16.0363 2.91663 15.8145C2.27832 15.7035 2.11027 15.6314 1.75427 15.5476V14.6863Z" fill="#FFAB02"/>
<path opacity="0.25" d="M2.91642 14.9396C4.19213 15.1614 5.96795 15.3836 7.96794 15.3836H18.9056V13.6336C13.4417 13.6336 8.50572 15.0235 3.06634 14.0776C2.44684 13.9698 1.93884 13.8523 1.93884 13.8523L1.75769 14.6897C2.11369 14.7734 2.2781 14.8286 2.91642 14.9396Z" fill="#FFAB02"/>
<path opacity="0.75" fill-rule="evenodd" clip-rule="evenodd" d="M1.935 13.856C2.0476 13.436 2.28006 12.977 2.71819 12.758V12.7587C2.71819 12.9044 3.06819 13.1962 4.46819 13.1962H7.32247C7.63198 13.1962 7.84315 12.8835 7.7282 12.5962L7.11623 11.0662C9.24017 10.2319 11.3454 9.3116 11.4682 8.82043C11.9057 7.07062 12.7807 6.19542 13.2182 5.75793C13.7943 5.1818 15.1781 6.23748 15.9219 6.80491V6.80492V6.80493C16.0712 6.91881 16.1947 7.01302 16.2807 7.07043C16.4561 7.18751 16.7435 7.33954 17.0531 7.50335C17.7105 7.85109 18.4682 8.25192 18.4682 8.48425C18.4682 8.61568 18.5329 8.95463 18.6126 9.3718V9.37189C18.74 10.0393 18.9057 10.9072 18.9057 11.4456V13.6365C17.0104 13.6613 15.1255 13.8416 13.2445 14.0217C9.85215 14.3463 6.47228 14.6698 3.06656 14.0775C2.62243 14.0003 2.24106 13.9231 1.935 13.856ZM15.75 12.75C16.7165 12.75 17.5 11.9665 17.5 11C17.5 10.0335 16.7165 9.25 15.75 9.25C14.7835 9.25 14 10.0335 14 11C14 11.9665 14.7835 12.75 15.75 12.75Z" fill="#FFAB02"/>
<path opacity="0.25" d="M4.46814 13.196C3.06814 13.196 2.71814 12.9043 2.71814 12.7585L7.11706 11.0696L7.72795 12.5959C7.84298 12.8833 7.63182 13.196 7.32226 13.196H4.46814Z" fill="#FFAB02"/>
<path opacity="0.25" d="M17.5 11C17.5 11.9665 16.7165 12.75 15.75 12.75C14.7835 12.75 14 11.9665 14 11C14 10.0335 14.7835 9.25 15.75 9.25C16.7165 9.25 17.5 10.0335 17.5 11Z" fill="#FFAB02"/>
</svg>
