<svg width="21" height="22" viewBox="0 0 21 22" fill="none" xmlns="http://www.w3.org/2000/svg">
<path opacity="0.75" fill-rule="evenodd" clip-rule="evenodd" d="M7.38889 6.625C5.44444 6.625 3.5 8.53906 3.5 11.2188C3.5 14.6641 5.44444 18.875 7.77778 18.875C8.42004 18.875 8.94442 18.643 9.41587 18.4344C9.80079 18.2641 10.1504 18.1094 10.5 18.1094C10.8496 18.1094 11.1992 18.2641 11.5841 18.4344C12.0556 18.643 12.58 18.875 13.2222 18.875C15.5556 18.875 17.5 14.6641 17.5 11.2188C17.5 8.53906 15.5556 6.625 13.6111 6.625C12.42 6.625 11.8126 6.9123 11.3419 7.13491C11.0443 7.2757 10.8014 7.39062 10.5 7.39062C10.1986 7.39062 9.95575 7.2757 9.65807 7.13491C9.18741 6.9123 8.58 6.625 7.38889 6.625Z" fill="#FFAB02"/>
<path opacity="0.5" fill-rule="evenodd" clip-rule="evenodd" d="M13.1248 4C12.7725 4 12.34 4.19127 11.9744 4.60301C11.6157 5.00684 11.3748 5.56869 11.3748 6.1875V7.11929C11.3637 7.12453 11.3527 7.12973 11.3417 7.13491C11.0441 7.2757 10.8011 7.39062 10.4998 7.39062C10.1985 7.39062 9.95548 7.2757 9.6578 7.13491C9.64687 7.12973 9.63584 7.12453 9.62482 7.11929V6.1875C9.62482 5.11494 10.0401 4.14553 10.6659 3.44095C11.2846 2.74429 12.1645 2.25 13.1248 2.25V4Z" fill="#FFAB02"/>
<path d="M8.74978 5.74985C6.47478 5.74985 5.24997 4.525 5.24997 2.25C7.52478 2.25 8.74978 3.475 8.74978 5.74985Z" fill="#FFAB02"/>
</svg>
