<svg width="21" height="22" viewBox="0 0 21 22" fill="none" xmlns="http://www.w3.org/2000/svg">
<path fill-rule="evenodd" clip-rule="evenodd" d="M16.625 4H18.375C18.8583 4 19.25 4.39175 19.25 4.875V10.125C19.25 10.6083 18.8583 11 18.375 11H11.375V11.875H9.625V10.125C9.625 9.64174 10.0167 9.25 10.5 9.25H17.5V5.75H16.625V4Z" fill="#FFAB02"/>
<path opacity="0.75" d="M8.75 12.75C8.75 12.2667 9.14174 11.875 9.625 11.875H11.375C11.8583 11.875 12.25 12.2667 12.25 12.75V18.875C12.25 19.3583 11.8583 19.75 11.375 19.75H9.625C9.14174 19.75 8.75 19.3583 8.75 18.875V12.75Z" fill="#FFAB02"/>
<path opacity="0.75" d="M3.5 3.125C3.5 2.64175 3.89175 2.25 4.375 2.25H15.75C16.2333 2.25 16.625 2.64175 16.625 3.125V6.625C16.625 7.10824 16.2333 7.5 15.75 7.5H4.375C3.89175 7.5 3.5 7.10824 3.5 6.625V3.125Z" fill="#FFAB02"/>
</svg>
