<svg width="21" height="22" viewBox="0 0 21 22" fill="none" xmlns="http://www.w3.org/2000/svg">
<path opacity="0.5" d="M14.4062 12.4715C13.5312 11.5956 13.3162 9.625 11.125 9.625C8.93381 9.625 8.28096 12.0339 7.84375 12.4715C7.40654 12.9092 5 13.5629 5 15.756C5 17.9491 7.40283 19.0371 8.9375 17.9456C10.4722 16.8542 11.7778 16.8508 13.3125 17.9456C14.8472 19.0405 17.25 17.9446 17.25 15.756C17.25 13.5675 15.2813 13.3475 14.4062 12.4715Z" fill="#FFAB02"/>
<path fill-rule="evenodd" clip-rule="evenodd" d="M7.68754 3.5C6.59379 3.5 5.93754 4.59375 5.93754 5.90625C5.93754 7.21875 6.81584 9.62438 8.56254 9.62438C9.65625 9.62438 10.3125 8.3125 10.3125 7C10.3125 5.6875 9.21875 3.5 7.68754 3.5ZM13.8125 3.5C14.9062 3.5 15.5625 4.59375 15.5625 5.90625C15.5625 7.21875 14.6843 9.62438 12.9375 9.62438C11.8438 9.62438 11.1875 8.3125 11.1875 7C11.1875 5.6875 12.2812 3.5 13.8125 3.5ZM19.5 9.35577C19.5 8.61252 18.9033 7.875 17.9086 7.875C16.3175 7.875 15.125 9.72597 15.125 10.8365C15.125 12.1322 15.9166 12.6875 16.7152 12.6875C18.068 12.6875 19.5 11.0217 19.5 9.35577ZM3.59132 7.875C2.59664 7.875 2 8.61252 2 9.35577C2 11.0217 3.43203 12.6875 4.78481 12.6875C5.58334 12.6875 6.37496 12.1322 6.37496 10.8365C6.37496 9.72597 5.18248 7.875 3.59132 7.875Z" fill="#FFAB02"/>
</svg>
