<svg width="21" height="22" viewBox="0 0 21 22" fill="none" xmlns="http://www.w3.org/2000/svg">
<path d="M5.25 17.1258C8.75175 17.1258 10.5 18.5724 10.5 18.5724V5.44375C10.5 5.44375 8.75 4 5.25 4C3.70372 4 2.59465 4.17489 2.07731 4.27741C1.88288 4.31594 1.75 4.48791 1.75 4.68612V16.9059C1.75 17.1932 2.02349 17.4095 2.30654 17.3599C2.88784 17.2582 3.90304 17.1258 5.25 17.1258Z" fill="#FFAB02"/>
<path opacity="0.75" fill-rule="evenodd" clip-rule="evenodd" d="M12.25 4.55669C11.0839 4.96328 10.5 5.44375 10.5 5.44375V18.5724C10.5 18.5724 12.2529 17.1258 15.7546 17.1258C17.1 17.1258 18.1127 17.2579 18.693 17.3596C18.9761 17.4092 19.2499 17.1929 19.2499 16.9054V4.68581C19.2499 4.48774 19.1173 4.31587 18.9229 4.27729C18.4068 4.17475 17.3002 4 15.7546 4C15.448 4 15.1548 4.01108 14.875 4.0313V10.125L13.5625 9.25L12.25 10.125V4.55669Z" fill="#FFAB02"/>
<path opacity="0.25" fill-rule="evenodd" clip-rule="evenodd" d="M14.875 4.03125V10.125L13.5625 9.25L12.25 10.125V4.55664C12.9282 4.32017 13.8033 4.10868 14.875 4.03125Z" fill="#FFAB02"/>
</svg>
