<svg width="21" height="22" viewBox="0 0 21 22" fill="none" xmlns="http://www.w3.org/2000/svg">
<path fill-rule="evenodd" clip-rule="evenodd" d="M10.5 12.0938V10.0344C11.51 9.74875 12.25 8.82018 12.25 7.71875V7.0625H8.59988C8.17975 7.0625 7.78407 7.16718 7.4375 7.3519V7.71875C7.4375 8.97395 8.39858 10.0047 9.625 10.1152V11.9844L10.5 12.0938ZM3.46433 13.773C3.86591 13.5042 4.40937 13.6118 4.67818 14.0133C5.9354 15.8915 8.07379 17.1251 10.4999 17.1251C12.9261 17.1251 15.0645 15.8915 16.3217 14.0133C16.5905 13.6118 17.134 13.5042 17.5355 13.773C17.9372 14.0418 18.0448 14.5852 17.776 14.9869C16.2078 17.3296 13.5345 18.8751 10.4999 18.8751C7.46537 18.8751 4.79211 17.3296 3.22392 14.9869C2.9551 14.5852 3.06274 14.0418 3.46433 13.773ZM6.13429 9.3214C6.19956 8.56627 6.60398 7.9081 7.19444 7.5H6.5625C4.87113 7.5 3.5 8.87112 3.5 10.5625V11.4375C3.5 11.6791 3.69588 11.875 3.9375 11.875H4.8125C5.05412 11.875 5.25 11.6791 5.25 11.4375V10.5625C5.25 9.98754 5.61967 9.49894 6.13429 9.3214Z" fill="#FFAB02"/>
<path opacity="0.6" fill-rule="evenodd" clip-rule="evenodd" d="M17.9375 4.875C17.9375 4.875 18.3187 4.49382 18.3694 4.08727C18.3754 4.03932 18.3358 4 18.2875 4H15.3125C13.6211 4 12.25 5.37112 12.25 7.0625V7.71875C12.25 8.82018 11.51 9.74875 10.5 10.0344V12.0938L12.25 12.3125V17.125H14V12.3125C14 12.3125 15.3125 11.4375 15.3125 10.125V7.0625L15.604 7.35394C15.6999 7.44999 15.7724 7.5671 15.8154 7.69596L15.9432 8.07971C16.0828 8.49834 16.5122 8.74756 16.9449 8.66101L17.6716 8.51568C18.0806 8.43388 18.375 8.0748 18.375 7.65771V5.75C18.375 5.3125 17.9375 4.875 17.9375 4.875ZM6.125 9.53735C6.125 8.59067 6.65656 7.76812 7.4375 7.3519V7.71875C7.4375 8.97395 8.39858 10.0047 9.625 10.1152V11.9844L8.75 11.875L8.35214 13.4664C8.32594 13.5713 8.31938 13.6799 8.33277 13.7872L8.75 17.125H7L6.58011 13.7659C6.56845 13.6726 6.57191 13.578 6.59035 13.4858L7 11.4375L6.84988 11.2873C6.38574 10.8232 6.125 10.1938 6.125 9.53735ZM17.0625 6.625C17.3041 6.625 17.5 6.42912 17.5 6.1875C17.5 5.94588 17.3041 5.75 17.0625 5.75C16.8209 5.75 16.625 5.94588 16.625 6.1875C16.625 6.42912 16.8209 6.625 17.0625 6.625Z" fill="#FFAB02"/>
<path d="M17.5 6.1875C17.5 6.42912 17.3041 6.625 17.0625 6.625C16.8209 6.625 16.625 6.42912 16.625 6.1875C16.625 5.94588 16.8209 5.75 17.0625 5.75C17.3041 5.75 17.5 5.94588 17.5 6.1875Z" fill="#FFAB02"/>
</svg>
