<svg width="21" height="22" viewBox="0 0 21 22" fill="none" xmlns="http://www.w3.org/2000/svg">
<path opacity="0.75" fill-rule="evenodd" clip-rule="evenodd" d="M6.125 16.25C5.1585 16.25 4.375 17.0335 4.375 18V19.75H16.625V18C16.625 17.0335 15.8415 16.25 14.875 16.25H6.125ZM10.5 18.875C10.9833 18.875 11.375 18.4833 11.375 18C11.375 17.5167 10.9833 17.125 10.5 17.125C10.0167 17.125 9.625 17.5167 9.625 18C9.625 18.4833 10.0167 18.875 10.5 18.875Z" fill="#FFAB02"/>
<path opacity="0.25" d="M11.375 18C11.375 18.4833 10.9833 18.875 10.5 18.875C10.0167 18.875 9.625 18.4833 9.625 18C9.625 17.5167 10.0167 17.125 10.5 17.125C10.9833 17.125 11.375 17.5167 11.375 18Z" fill="#FFAB02"/>
<path opacity="0.5" fill-rule="evenodd" clip-rule="evenodd" d="M4.375 3.125C3.4085 3.125 2.625 3.9085 2.625 4.875V9.25C2.625 10.2165 3.4085 11 4.375 11H6.125V15.375H14.875L16.625 3.125H6.125H4.375ZM6.125 4.875H4.375V9.25H6.125V4.875Z" fill="#FFAB02"/>
<path fill-rule="evenodd" clip-rule="evenodd" d="M15.625 10.125L15.5 11H10.5V10.125H15.625ZM16 7.5L15.875 8.375H10.5V7.5H16ZM16.375 4.875L16.25 5.75H10.5V4.875H16.375Z" fill="#FFAB02"/>
</svg>
