<svg width="21" height="22" viewBox="0 0 21 22" fill="none" xmlns="http://www.w3.org/2000/svg">
<path opacity="0.5" fill-rule="evenodd" clip-rule="evenodd" d="M5.75444 4C5.48821 4 5.28368 4.2358 5.32134 4.49937L6.94634 15.8744C6.97713 16.0899 7.16172 16.25 7.37944 16.25H13.6206C13.8383 16.25 14.0228 16.0899 14.0536 15.8744L15 9.25H6.00009L5.75009 7.5H15.25L15.6787 4.49937C15.7163 4.2358 15.5118 4 15.2456 4H5.75444Z" fill="#FFAB02"/>
<path opacity="0.75" fill-rule="evenodd" clip-rule="evenodd" d="M6.0001 9.25L5.75009 7.5H15.2501L15.0001 9.25H6.0001Z" fill="#FFAB02"/>
<path d="M7.875 16.25H13.125V18.4375C13.125 19.1623 12.5374 19.75 11.8125 19.75H9.1875C8.46262 19.75 7.875 19.1623 7.875 18.4375V16.25Z" fill="#FFAB02"/>
</svg>
