<svg width="21" height="22" viewBox="0 0 21 22" fill="none" xmlns="http://www.w3.org/2000/svg">
<path opacity="0.5" fill-rule="evenodd" clip-rule="evenodd" d="M2.625 10.125C2.625 5.77576 6.15076 2.25 10.5 2.25C14.8493 2.25 18.375 5.77576 18.375 10.125V14.5H16.625V10.125C16.625 6.74226 13.8827 4 10.5 4C7.11726 4 4.375 6.74226 4.375 10.125V14.5H2.625V10.125Z" fill="#FFAB02"/>
<path fill-rule="evenodd" clip-rule="evenodd" d="M4.375 11.875C3.4085 11.875 2.625 12.6585 2.625 13.625V17.125C2.625 18.0915 3.4085 18.875 4.375 18.875H6.125C7.0915 18.875 7.875 18.0915 7.875 17.125V13.625C7.875 12.6585 7.0915 11.875 6.125 11.875H4.375ZM14.875 11.875C13.9085 11.875 13.125 12.6585 13.125 13.625V17.125C13.125 18.0915 13.9085 18.875 14.875 18.875H16.625C17.5915 18.875 18.375 18.0915 18.375 17.125V13.625C18.375 12.6585 17.5915 11.875 16.625 11.875H14.875Z" fill="#FFAB02"/>
</svg>
