<svg width="21" height="22" viewBox="0 0 21 22" fill="none" xmlns="http://www.w3.org/2000/svg">
<path opacity="0.75" fill-rule="evenodd" clip-rule="evenodd" d="M6.99968 3.125H4.375V18C4.375 18.4833 4.76675 18.875 5.25 18.875H15.75C16.2333 18.875 16.625 18.4833 16.625 18V3.125H14.0004C13.2022 4.18764 11.9313 4.875 10.5 4.875C9.06868 4.875 7.79786 4.18764 6.99968 3.125Z" fill="#FFAB02"/>
<path fill-rule="evenodd" clip-rule="evenodd" d="M1.65752 4.48369L4.3749 3.125V8.59375L3.84502 8.85869C3.41279 9.07481 2.8872 8.89961 2.67109 8.46737L1.26621 5.65763C1.0501 5.22539 1.2253 4.69981 1.65752 4.48369ZM19.3421 4.48369L16.6248 3.125V8.59375L17.1546 8.85869C17.5869 9.07481 18.1125 8.89961 18.3286 8.46737L19.7334 5.65763C19.9496 5.22539 19.7744 4.69981 19.3421 4.48369Z" fill="#FFAB02"/>
</svg>
