<svg width="21" height="22" viewBox="0 0 21 22" fill="none" xmlns="http://www.w3.org/2000/svg">
<path opacity="0.75" fill-rule="evenodd" clip-rule="evenodd" d="M10.5 19.2756C10.6676 19.2756 10.8351 19.2181 10.9688 19.1029C11.2932 18.8237 11.6979 18.4973 12.1528 18.1304C14.8313 15.97 19.25 12.406 19.25 8.8125C19.25 6.0125 17.0188 4 14.4375 4C11.9438 4 10.5 6.04223 10.5 6.04223V19.2756Z" fill="#FFAB02"/>
<path fill-rule="evenodd" clip-rule="evenodd" d="M10.5 6.04223C10.5 6.04223 9.05905 4 6.5625 4C3.98125 4 1.75 6.0125 1.75 8.8125C1.75 12.4064 6.17054 15.9717 8.84861 18.1317C9.303 18.4981 9.70725 18.8242 10.0312 19.103C10.1649 19.2181 10.3324 19.2756 10.5 19.2756V6.04223Z" fill="#FFAB02"/>
</svg>
