<svg width="21" height="22" viewBox="0 0 21 22" fill="none" xmlns="http://www.w3.org/2000/svg">
<path opacity="0.75" fill-rule="evenodd" clip-rule="evenodd" d="M7 5.75C5.55026 5.75 4.375 6.92526 4.375 8.375V15.375C4.375 13.9252 5.55026 12.75 7 12.75H14C15.4498 12.75 16.625 13.9252 16.625 15.375V8.375C16.625 6.92526 15.4498 5.75 14 5.75H7Z" fill="#FFAB02"/>
<path opacity="0.5" d="M4.375 15.375C4.375 13.9252 5.55026 12.75 7 12.75H14C15.4498 12.75 16.625 13.9252 16.625 15.375V17.125C16.625 18.5748 15.4498 19.75 14 19.75H7C5.55026 19.75 4.375 18.5748 4.375 17.125V15.375Z" fill="#FFAB02"/>
<path fill-rule="evenodd" clip-rule="evenodd" d="M7 5.75C7 3.817 8.567 2.25 10.5 2.25C12.433 2.25 14 3.817 14 5.75H12.25C12.25 4.7835 11.4665 4 10.5 4C9.53347 4 8.75 4.7835 8.75 5.75H7ZM4.375 10.2745C3.35546 10.6349 2.625 11.6073 2.625 12.7502V16.2502C2.625 17.2167 3.4085 18.0002 4.375 18.0002H4.52437C4.42763 17.7265 4.375 17.432 4.375 17.1252V10.2745ZM16.4756 18.0002H16.625C17.5915 18.0002 18.375 17.2167 18.375 16.2502V12.7502C18.375 11.6073 17.6446 10.6349 16.625 10.2745V17.1252C16.625 17.432 16.5723 17.7265 16.4756 18.0002ZM9.625 7.5C9.14174 7.5 8.75 7.89176 8.75 8.375V9.25C8.75 9.73326 9.14174 10.125 9.625 10.125H11.375C11.8583 10.125 12.25 9.73326 12.25 9.25V8.375C12.25 7.89176 11.8583 7.5 11.375 7.5H9.625Z" fill="#FFAB02"/>
</svg>
