<svg width="21" height="22" viewBox="0 0 21 22" fill="none" xmlns="http://www.w3.org/2000/svg">
<path opacity="0.25" fill-rule="evenodd" clip-rule="evenodd" d="M8.3125 18.875H12.6875C12.4459 18.875 12.25 18.6791 12.25 18.4375V14.0625C12.25 13.8209 12.0541 13.625 11.8125 13.625H9.1875C8.94591 13.625 8.75 13.8209 8.75 14.0625V18.4375C8.75 18.6791 8.55412 18.875 8.3125 18.875Z" fill="#FFAB02"/>
<path opacity="0.75" d="M3.5 11.875L10.5 5.75L17.5 11.875V18.4375C17.5 18.6791 17.3041 18.875 17.0625 18.875H12.6875C12.4459 18.875 12.25 18.6791 12.25 18.4375V14.0625C12.25 13.8209 12.0541 13.625 11.8125 13.625H9.1875C8.94591 13.625 8.75 13.8209 8.75 14.0625V18.4375C8.75 18.6791 8.55412 18.875 8.3125 18.875H3.9375C3.69588 18.875 3.5 18.6791 3.5 18.4375V11.875Z" fill="#FFAB02"/>
<path d="M2.03593 10.4549C1.87787 10.2725 1.8973 9.99663 2.07937 9.83826L10.2134 2.76218C10.3781 2.61894 10.6231 2.61895 10.7878 2.7622L18.9205 9.83826C19.1026 9.99663 19.122 10.2725 18.964 10.4549L18.3991 11.1064C18.2409 11.289 17.9644 11.3087 17.7818 11.1502L10.7873 5.07976C10.6228 4.93699 10.3784 4.93698 10.2139 5.07974L3.21799 11.1502C3.03543 11.3087 2.759 11.289 2.60067 11.1064L2.03593 10.4549Z" fill="#FFAB02"/>
</svg>
