<svg width="200" height="68" viewBox="0 0 200 68" fill="none" xmlns="http://www.w3.org/2000/svg">
<path fill-rule="evenodd" clip-rule="evenodd" d="M56.9717 0.583122C54.5499 1.23905 52.839 2.25676 50.9055 4.19133C49.5396 5.55801 49.0123 6.26236 48.3506 7.60503C46.9183 10.5105 46.9309 10.3442 46.9269 26.3552L46.9235 40.6123H48.9245H50.9255L50.9285 26.6554C50.9317 11.4369 50.9453 11.2302 52.0814 9.11919C52.7796 7.82154 54.5529 6.04825 55.8505 5.3501C57.8569 4.27016 60.4652 3.9386 62.5927 4.49268C65.8551 5.3423 68.3898 7.71229 69.3557 10.8156C69.7127 11.962 69.7349 12.8549 69.7349 26.0064C69.7349 33.6915 69.7895 40.1217 69.8563 40.2958C69.9558 40.5549 70.3364 40.6123 71.9512 40.6123H73.9246L73.9808 25.955L74.037 11.2977L74.783 9.7353C78.6099 1.72069 89.8911 2.64715 92.4238 11.184C92.7072 12.1387 92.7464 13.9924 92.7464 26.4417V40.6123H94.7474H96.7484L96.7454 26.1551C96.7422 10.1397 96.763 10.433 95.4345 7.70868C92.0218 0.709985 83.1792 -1.91453 76.419 2.06466C75.1914 2.78722 73.4373 4.35561 72.4236 5.63745L71.8359 6.38042L70.7286 5.03715C69.2624 3.25866 67.194 1.79973 64.9915 0.990724C63.4553 0.426442 62.9263 0.334197 60.8304 0.266163C58.8888 0.203332 58.1503 0.263962 56.9717 0.583122ZM117.759 0.577319C113.298 1.57622 110.155 3.3511 107.044 6.62714C104.652 9.1456 102.993 12.2093 102.105 15.7451C101.49 18.1969 101.486 22.5451 102.098 25.0045C103.951 32.4553 109.385 37.9736 116.923 40.0611C118.194 40.413 119.029 40.4881 121.761 40.4957C124.766 40.5043 125.241 40.4557 127.046 39.9544C130.625 38.9611 133.618 37.1922 136.305 34.4841L137.942 32.8332L138.006 36.1395L138.069 39.4456L138.723 40.0288C139.909 41.0878 141.47 40.6295 141.984 39.0718C142.347 37.972 142.099 18.4388 141.697 16.5003C140.1 8.78942 134.523 2.88627 126.847 0.78122C124.551 0.151505 120.106 0.051856 117.759 0.577319ZM126.127 4.78762C129.048 5.61764 131.561 7.16741 133.704 9.46076C135.286 11.1528 136.377 13.0045 137.204 15.3997C137.836 17.2294 137.861 17.4169 137.861 20.4022C137.861 23.3875 137.836 23.575 137.204 25.4047C136.378 27.7965 135.286 29.6521 133.714 31.3327C129.984 35.3197 124.562 37.2332 119.36 36.3986C115.145 35.7225 110.882 33.09 108.576 29.7391C107.642 28.381 106.46 25.7535 106.042 24.1041C105.535 22.1059 105.575 18.4178 106.124 16.3504C106.564 14.6976 107.573 12.5237 108.58 11.0598C110.788 7.85056 114.648 5.35631 118.759 4.48107C120.573 4.09508 124.225 4.24695 126.127 4.78762ZM159.18 22.8967V40.6123H161.395H163.611L163.58 36.5603C163.562 34.3318 163.556 32.4296 163.565 32.3336C163.574 32.2375 164.325 32.8306 165.233 33.6519C166.141 34.4729 168.352 36.3748 170.147 37.8786L173.411 40.6123H176.434C178.096 40.6123 179.419 40.5791 179.373 40.5385C179.327 40.4979 177.309 38.8188 174.887 36.807C172.466 34.7954 169.468 32.2403 168.226 31.1294L165.966 29.1092L167.826 27.2999C168.848 26.3048 171.796 23.4454 174.377 20.9455L179.069 16.4002H176.214H173.358L169.12 20.5721C164.576 25.0454 163.8 25.7611 163.66 25.6048C163.611 25.5498 163.551 20.9575 163.526 15.3997L163.482 5.29468L161.331 5.23785L159.18 5.18102V22.8967ZM182.091 18.3928V20.4024L188.344 20.4022C191.783 20.4022 194.597 20.4537 194.597 20.5165C194.597 20.5793 191.892 23.7191 188.584 27.494C185.277 31.2687 182.287 34.7444 181.938 35.218C181.424 35.9176 181.292 36.3074 181.237 37.2953C181.154 38.772 181.564 39.5552 182.718 40.1281C183.437 40.4851 184.076 40.5165 191.746 40.5707L200 40.6289V38.5697L200 36.5103L193.197 36.5485C189.455 36.5695 186.393 36.5155 186.393 36.4284C186.393 36.3414 189.235 33.0375 192.708 29.0866C196.18 25.1356 199.208 21.548 199.435 21.1142C199.987 20.0583 200.005 18.5755 199.475 17.8498C199.254 17.5478 198.719 17.1206 198.286 16.9005C197.546 16.5243 197.038 16.4969 189.795 16.4418L182.091 16.3834V18.3928ZM150.075 36.1937C149.061 36.4889 148.374 37.3699 148.374 38.3758C148.374 38.8775 148.549 39.2268 149.055 39.7319C149.622 40.2996 149.879 40.4114 150.605 40.4078C151.897 40.4012 152.777 39.5356 152.776 38.2744C152.775 37.4528 152.088 36.4426 151.432 36.2988C151.126 36.2317 150.785 36.1543 150.675 36.1269C150.565 36.0995 150.295 36.1295 150.075 36.1937Z" fill="white"/>
<path fill-rule="evenodd" clip-rule="evenodd" d="M20.7334 9.05507C21.037 10.1177 20.4217 11.2252 19.3591 11.5288C17.4744 12.0673 13.2729 14.474 12.2673 19.502C12.0506 20.5856 10.9964 21.2884 9.91273 21.0717C8.82907 20.8549 8.12628 19.8008 8.34302 18.7171C9.73861 11.7391 15.4754 8.47628 18.2597 7.68078C19.3223 7.37718 20.4298 7.99247 20.7334 9.05507Z" fill="white"/>
<path fill-rule="evenodd" clip-rule="evenodd" d="M21.2106 36.6183C30.2174 36.6183 37.5188 29.3169 37.5188 20.3102C37.5188 11.3034 30.2174 4.002 21.2106 4.002C12.2039 4.002 4.90245 11.3034 4.90245 20.3102C4.90245 29.3169 12.2039 36.6183 21.2106 36.6183ZM21.2106 40.6203C32.4276 40.6203 41.5208 31.5271 41.5208 20.3102C41.5208 9.09317 32.4276 0 21.2106 0C9.99362 0 0.900452 9.09317 0.900452 20.3102C0.900452 31.5271 9.99362 40.6203 21.2106 40.6203Z" fill="#FFAB02"/>
<path fill-rule="evenodd" clip-rule="evenodd" d="M8.94463 32.9289C9.71147 33.7247 9.68801 34.9914 8.89223 35.7583L3.38948 41.0609C2.59371 41.8278 1.32696 41.8043 0.560126 41.0085C-0.20671 40.2128 -0.183252 38.946 0.612522 38.1792L6.11527 32.8765C6.91105 32.1097 8.17779 32.1332 8.94463 32.9289Z" fill="#FFAB02"/>
<path d="M8.94824 57.3711V57.918C8.94824 58.6699 8.85026 59.3444 8.6543 59.9414C8.45833 60.5384 8.17806 61.0465 7.81348 61.4658C7.45345 61.8851 7.02051 62.2064 6.51465 62.4297C6.00879 62.6484 5.44824 62.7578 4.83301 62.7578C4.22233 62.7578 3.66406 62.6484 3.1582 62.4297C2.6569 62.2064 2.22168 61.8851 1.85254 61.4658C1.4834 61.0465 1.19629 60.5384 0.991211 59.9414C0.79069 59.3444 0.69043 58.6699 0.69043 57.918V57.3711C0.69043 56.6191 0.79069 55.9469 0.991211 55.3545C1.19173 54.7575 1.47428 54.2493 1.83887 53.8301C2.20801 53.4062 2.64323 53.085 3.14453 52.8662C3.65039 52.6429 4.20866 52.5312 4.81934 52.5312C5.43457 52.5312 5.99512 52.6429 6.50098 52.8662C7.00684 53.085 7.44206 53.4062 7.80664 53.8301C8.17122 54.2493 8.4515 54.7575 8.64746 55.3545C8.84798 55.9469 8.94824 56.6191 8.94824 57.3711ZM7.23242 57.918V57.3574C7.23242 56.8014 7.17773 56.3115 7.06836 55.8877C6.96354 55.4593 6.80632 55.1016 6.59668 54.8145C6.3916 54.5228 6.13867 54.304 5.83789 54.1582C5.53711 54.0078 5.19759 53.9326 4.81934 53.9326C4.44108 53.9326 4.10384 54.0078 3.80762 54.1582C3.51139 54.304 3.25846 54.5228 3.04883 54.8145C2.84375 55.1016 2.68652 55.4593 2.57715 55.8877C2.46777 56.3115 2.41309 56.8014 2.41309 57.3574V57.918C2.41309 58.474 2.46777 58.9661 2.57715 59.3945C2.68652 59.8229 2.84603 60.1852 3.05566 60.4814C3.26986 60.7731 3.52507 60.9941 3.82129 61.1445C4.11751 61.2904 4.45475 61.3633 4.83301 61.3633C5.21582 61.3633 5.55534 61.2904 5.85156 61.1445C6.14779 60.9941 6.39844 60.7731 6.60352 60.4814C6.80859 60.1852 6.96354 59.8229 7.06836 59.3945C7.17773 58.9661 7.23242 58.474 7.23242 57.918ZM12.1338 56.8037V62.6211H10.4863V55.2246H12.0381L12.1338 56.8037ZM11.8398 58.6494L11.3066 58.6426C11.3112 58.1185 11.3841 57.6377 11.5254 57.2002C11.6712 56.7627 11.8717 56.3867 12.127 56.0723C12.3867 55.7578 12.6966 55.5163 13.0566 55.3477C13.4167 55.1745 13.8177 55.0879 14.2598 55.0879C14.6152 55.0879 14.9365 55.138 15.2236 55.2383C15.5153 55.334 15.7637 55.4912 15.9688 55.71C16.1784 55.9287 16.3379 56.2135 16.4473 56.5645C16.5566 56.9108 16.6113 57.3369 16.6113 57.8428V62.6211H14.957V57.8359C14.957 57.4805 14.9046 57.2002 14.7998 56.9951C14.6995 56.7855 14.5514 56.6374 14.3555 56.5508C14.1641 56.4596 13.9248 56.4141 13.6377 56.4141C13.3551 56.4141 13.1022 56.4733 12.8789 56.5918C12.6556 56.7103 12.4665 56.8721 12.3115 57.0771C12.1611 57.2822 12.0449 57.5192 11.9629 57.7881C11.8809 58.057 11.8398 58.3441 11.8398 58.6494ZM20.0566 52.1211V62.6211H18.4023V52.1211H20.0566ZM23.625 55.2246V62.6211H21.9707V55.2246H23.625ZM21.8613 53.2832C21.8613 53.0326 21.9434 52.8252 22.1074 52.6611C22.276 52.4925 22.5085 52.4082 22.8047 52.4082C23.0964 52.4082 23.3265 52.4925 23.4951 52.6611C23.6637 52.8252 23.748 53.0326 23.748 53.2832C23.748 53.5293 23.6637 53.7344 23.4951 53.8984C23.3265 54.0625 23.0964 54.1445 22.8047 54.1445C22.5085 54.1445 22.276 54.0625 22.1074 53.8984C21.9434 53.7344 21.8613 53.5293 21.8613 53.2832ZM27.0635 56.8037V62.6211H25.416V55.2246H26.9678L27.0635 56.8037ZM26.7695 58.6494L26.2363 58.6426C26.2409 58.1185 26.3138 57.6377 26.4551 57.2002C26.6009 56.7627 26.8014 56.3867 27.0566 56.0723C27.3164 55.7578 27.6263 55.5163 27.9863 55.3477C28.3464 55.1745 28.7474 55.0879 29.1895 55.0879C29.5449 55.0879 29.8662 55.138 30.1533 55.2383C30.445 55.334 30.6934 55.4912 30.8984 55.71C31.1081 55.9287 31.2676 56.2135 31.377 56.5645C31.4863 56.9108 31.541 57.3369 31.541 57.8428V62.6211H29.8867V57.8359C29.8867 57.4805 29.8343 57.2002 29.7295 56.9951C29.6292 56.7855 29.4811 56.6374 29.2852 56.5508C29.0938 56.4596 28.8545 56.4141 28.5674 56.4141C28.2848 56.4141 28.0319 56.4733 27.8086 56.5918C27.5853 56.7103 27.3962 56.8721 27.2412 57.0771C27.0908 57.2822 26.9746 57.5192 26.8926 57.7881C26.8105 58.057 26.7695 58.3441 26.7695 58.6494ZM36.4834 62.7578C35.9365 62.7578 35.4421 62.6689 35 62.4912C34.5625 62.3089 34.1888 62.056 33.8789 61.7324C33.5736 61.4089 33.3389 61.0283 33.1748 60.5908C33.0107 60.1533 32.9287 59.6816 32.9287 59.1758V58.9023C32.9287 58.3236 33.013 57.7995 33.1816 57.3301C33.3503 56.8607 33.585 56.4596 33.8857 56.127C34.1865 55.7897 34.542 55.5322 34.9521 55.3545C35.3623 55.1768 35.8066 55.0879 36.2852 55.0879C36.8138 55.0879 37.2764 55.1768 37.6729 55.3545C38.0693 55.5322 38.3975 55.7829 38.6572 56.1064C38.9215 56.4255 39.1175 56.806 39.2451 57.248C39.3773 57.6901 39.4434 58.1777 39.4434 58.7109V59.415H33.7285V58.2324H37.8164V58.1025C37.8073 57.8063 37.748 57.5283 37.6387 57.2686C37.5339 57.0088 37.3721 56.7992 37.1533 56.6396C36.9346 56.4801 36.6429 56.4004 36.2783 56.4004C36.0049 56.4004 35.7611 56.4596 35.5469 56.5781C35.3372 56.6921 35.1618 56.8584 35.0205 57.0771C34.8792 57.2959 34.7699 57.5602 34.6924 57.8701C34.6195 58.1755 34.583 58.5195 34.583 58.9023V59.1758C34.583 59.4993 34.6263 59.8001 34.7129 60.0781C34.804 60.3516 34.9362 60.5908 35.1094 60.7959C35.2826 61.001 35.4922 61.1628 35.7383 61.2812C35.9844 61.3952 36.2646 61.4521 36.5791 61.4521C36.9756 61.4521 37.3288 61.3724 37.6387 61.2129C37.9486 61.0534 38.2174 60.8278 38.4453 60.5361L39.3135 61.377C39.154 61.6094 38.9466 61.8327 38.6914 62.0469C38.4362 62.2565 38.124 62.4274 37.7549 62.5596C37.3903 62.6917 36.9665 62.7578 36.4834 62.7578ZM40.7969 61.8008C40.7969 61.5456 40.8835 61.3314 41.0566 61.1582C41.2298 60.9805 41.4645 60.8916 41.7607 60.8916C42.0615 60.8916 42.2962 60.9805 42.4648 61.1582C42.638 61.3314 42.7246 61.5456 42.7246 61.8008C42.7246 62.056 42.638 62.2702 42.4648 62.4434C42.2962 62.6165 42.0615 62.7031 41.7607 62.7031C41.4645 62.7031 41.2298 62.6165 41.0566 62.4434C40.8835 62.2702 40.7969 62.056 40.7969 61.8008ZM48.9727 52.668H50.5039L53.3818 60.3447L56.2529 52.668H57.7842L53.9834 62.6211H52.7666L48.9727 52.668ZM48.2754 52.668H49.7314L49.9844 59.3125V62.6211H48.2754V52.668ZM57.0254 52.668H58.4883V62.6211H56.7725V59.3125L57.0254 52.668ZM64.5312 61.1377V57.6104C64.5312 57.346 64.4834 57.1182 64.3877 56.9268C64.292 56.7354 64.1462 56.5872 63.9502 56.4824C63.7588 56.3776 63.5173 56.3252 63.2256 56.3252C62.9567 56.3252 62.7243 56.3708 62.5283 56.4619C62.3324 56.5531 62.1797 56.6761 62.0703 56.8311C61.9609 56.986 61.9062 57.1615 61.9062 57.3574H60.2656C60.2656 57.0658 60.3363 56.7832 60.4775 56.5098C60.6188 56.2363 60.8239 55.9925 61.0928 55.7783C61.3617 55.5641 61.6829 55.3955 62.0566 55.2725C62.4303 55.1494 62.8496 55.0879 63.3145 55.0879C63.8704 55.0879 64.3626 55.1813 64.791 55.3682C65.224 55.555 65.5635 55.8376 65.8096 56.2158C66.0602 56.5895 66.1855 57.0589 66.1855 57.624V60.9121C66.1855 61.2493 66.2083 61.5524 66.2539 61.8213C66.304 62.0856 66.3747 62.3158 66.4658 62.5117V62.6211H64.7773C64.6999 62.4434 64.6383 62.2178 64.5928 61.9443C64.5518 61.6663 64.5312 61.3975 64.5312 61.1377ZM64.7705 58.123L64.7842 59.1416H63.6016C63.2962 59.1416 63.0273 59.1712 62.7949 59.2305C62.5625 59.2852 62.3688 59.3672 62.2139 59.4766C62.0589 59.5859 61.9427 59.7181 61.8652 59.873C61.7878 60.028 61.749 60.2035 61.749 60.3994C61.749 60.5954 61.7946 60.7754 61.8857 60.9395C61.9769 61.099 62.109 61.2243 62.2822 61.3154C62.46 61.4066 62.6742 61.4521 62.9248 61.4521C63.262 61.4521 63.556 61.3838 63.8066 61.2471C64.0618 61.1058 64.2624 60.9349 64.4082 60.7344C64.554 60.5293 64.6315 60.3356 64.6406 60.1533L65.1738 60.8848C65.1191 61.0716 65.0257 61.2721 64.8936 61.4863C64.7614 61.7005 64.5882 61.9056 64.374 62.1016C64.1644 62.293 63.9115 62.4502 63.6152 62.5732C63.3236 62.6963 62.9863 62.7578 62.6035 62.7578C62.1204 62.7578 61.6898 62.6621 61.3115 62.4707C60.9333 62.2747 60.637 62.0127 60.4229 61.6846C60.2087 61.3519 60.1016 60.9759 60.1016 60.5566C60.1016 60.1647 60.1745 59.8184 60.3203 59.5176C60.4707 59.2122 60.6895 58.957 60.9766 58.752C61.2682 58.5469 61.6237 58.3919 62.043 58.2871C62.4622 58.1777 62.9408 58.123 63.4785 58.123H64.7705ZM69.5625 56.6328V62.6211H67.915V55.2246H69.4873L69.5625 56.6328ZM71.8252 55.1768L71.8115 56.708C71.7113 56.6898 71.6019 56.6761 71.4834 56.667C71.3695 56.6579 71.2555 56.6533 71.1416 56.6533C70.859 56.6533 70.6107 56.6943 70.3965 56.7764C70.1823 56.8538 70.0023 56.9678 69.8564 57.1182C69.7152 57.264 69.6058 57.4417 69.5283 57.6514C69.4508 57.861 69.4053 58.0957 69.3916 58.3555L69.0156 58.3828C69.0156 57.918 69.0612 57.4873 69.1523 57.0908C69.2435 56.6943 69.3802 56.3457 69.5625 56.0449C69.7493 55.7441 69.9818 55.5094 70.2598 55.3408C70.5423 55.1722 70.8682 55.0879 71.2373 55.0879C71.3376 55.0879 71.4447 55.097 71.5586 55.1152C71.6771 55.1335 71.766 55.154 71.8252 55.1768ZM74.5186 52.1211V62.6211H72.8643V52.1211H74.5186ZM79.1123 55.2246L75.8926 58.793L74.1289 60.5977L73.6982 59.2031L75.0312 57.5557L77.123 55.2246H79.1123ZM77.4785 62.6211L75.0791 59.1484L76.1182 57.9932L79.3857 62.6211H77.4785ZM83.2822 62.7578C82.7354 62.7578 82.2409 62.6689 81.7988 62.4912C81.3613 62.3089 80.9876 62.056 80.6777 61.7324C80.3724 61.4089 80.1377 61.0283 79.9736 60.5908C79.8096 60.1533 79.7275 59.6816 79.7275 59.1758V58.9023C79.7275 58.3236 79.8118 57.7995 79.9805 57.3301C80.1491 56.8607 80.3838 56.4596 80.6846 56.127C80.9854 55.7897 81.3408 55.5322 81.751 55.3545C82.1611 55.1768 82.6055 55.0879 83.084 55.0879C83.6126 55.0879 84.0752 55.1768 84.4717 55.3545C84.8682 55.5322 85.1963 55.7829 85.4561 56.1064C85.7204 56.4255 85.9163 56.806 86.0439 57.248C86.1761 57.6901 86.2422 58.1777 86.2422 58.7109V59.415H80.5273V58.2324H84.6152V58.1025C84.6061 57.8063 84.5469 57.5283 84.4375 57.2686C84.3327 57.0088 84.1709 56.7992 83.9521 56.6396C83.7334 56.4801 83.4417 56.4004 83.0771 56.4004C82.8037 56.4004 82.5599 56.4596 82.3457 56.5781C82.1361 56.6921 81.9606 56.8584 81.8193 57.0771C81.6781 57.2959 81.5687 57.5602 81.4912 57.8701C81.4183 58.1755 81.3818 58.5195 81.3818 58.9023V59.1758C81.3818 59.4993 81.4251 59.8001 81.5117 60.0781C81.6029 60.3516 81.735 60.5908 81.9082 60.7959C82.0814 61.001 82.291 61.1628 82.5371 61.2812C82.7832 61.3952 83.0635 61.4521 83.3779 61.4521C83.7744 61.4521 84.1276 61.3724 84.4375 61.2129C84.7474 61.0534 85.0163 60.8278 85.2441 60.5361L86.1123 61.377C85.9528 61.6094 85.7454 61.8327 85.4902 62.0469C85.235 62.2565 84.9229 62.4274 84.5537 62.5596C84.1891 62.6917 83.7653 62.7578 83.2822 62.7578ZM90.918 55.2246V56.4277H86.748V55.2246H90.918ZM87.9512 53.4131H89.5986V60.5771C89.5986 60.805 89.6305 60.9805 89.6943 61.1035C89.7627 61.222 89.8561 61.3018 89.9746 61.3428C90.0931 61.3838 90.2321 61.4043 90.3916 61.4043C90.5055 61.4043 90.6149 61.3975 90.7197 61.3838C90.8245 61.3701 90.9089 61.3564 90.9727 61.3428L90.9795 62.6006C90.8428 62.6416 90.6833 62.6781 90.501 62.71C90.3232 62.7419 90.1182 62.7578 89.8857 62.7578C89.5075 62.7578 89.1725 62.6917 88.8809 62.5596C88.5892 62.4229 88.3613 62.2018 88.1973 61.8965C88.0332 61.5911 87.9512 61.1855 87.9512 60.6797V53.4131ZM92.2578 61.8008C92.2578 61.5456 92.3444 61.3314 92.5176 61.1582C92.6908 60.9805 92.9255 60.8916 93.2217 60.8916C93.5225 60.8916 93.7572 60.9805 93.9258 61.1582C94.099 61.3314 94.1855 61.5456 94.1855 61.8008C94.1855 62.056 94.099 62.2702 93.9258 62.4434C93.7572 62.6165 93.5225 62.7031 93.2217 62.7031C92.9255 62.7031 92.6908 62.6165 92.5176 62.4434C92.3444 62.2702 92.2578 62.056 92.2578 61.8008ZM103.612 53.9941L100.639 62.6211H98.8408L102.587 52.668H103.735L103.612 53.9941ZM106.101 62.6211L103.12 53.9941L102.99 52.668H104.146L107.905 62.6211H106.101ZM105.957 58.9297V60.29H100.543V58.9297H105.957ZM113.593 55.2246H115.09V62.416C115.09 63.0814 114.949 63.6465 114.666 64.1113C114.383 64.5762 113.989 64.9294 113.483 65.1709C112.978 65.417 112.392 65.54 111.727 65.54C111.444 65.54 111.13 65.499 110.783 65.417C110.441 65.335 110.109 65.2028 109.785 65.0205C109.466 64.8428 109.2 64.6081 108.985 64.3164L109.758 63.3457C110.022 63.6602 110.314 63.8903 110.633 64.0361C110.952 64.182 111.287 64.2549 111.638 64.2549C112.016 64.2549 112.337 64.1842 112.602 64.043C112.87 63.9062 113.078 63.7035 113.224 63.4346C113.369 63.1657 113.442 62.8376 113.442 62.4502V56.8994L113.593 55.2246ZM108.568 59.0049V58.8613C108.568 58.3008 108.637 57.7904 108.773 57.3301C108.91 56.8652 109.106 56.4665 109.361 56.1338C109.617 55.7965 109.926 55.5391 110.291 55.3613C110.656 55.179 111.068 55.0879 111.528 55.0879C112.007 55.0879 112.415 55.1745 112.752 55.3477C113.094 55.5208 113.379 55.7692 113.606 56.0928C113.834 56.4118 114.012 56.7946 114.14 57.2412C114.272 57.6833 114.37 58.1755 114.434 58.7178V59.1758C114.374 59.7044 114.274 60.1875 114.133 60.625C113.992 61.0625 113.805 61.4408 113.572 61.7598C113.34 62.0788 113.053 62.3249 112.711 62.498C112.374 62.6712 111.975 62.7578 111.515 62.7578C111.063 62.7578 110.656 62.6644 110.291 62.4775C109.931 62.2907 109.621 62.0286 109.361 61.6914C109.106 61.3542 108.91 60.9577 108.773 60.502C108.637 60.0417 108.568 59.5426 108.568 59.0049ZM110.216 58.8613V59.0049C110.216 59.3421 110.248 59.6566 110.312 59.9482C110.38 60.2399 110.482 60.4974 110.619 60.7207C110.76 60.9395 110.938 61.1126 111.152 61.2402C111.371 61.3633 111.629 61.4248 111.925 61.4248C112.312 61.4248 112.629 61.3428 112.875 61.1787C113.126 61.0146 113.317 60.7936 113.449 60.5156C113.586 60.2331 113.682 59.9186 113.736 59.5723V58.335C113.709 58.0661 113.652 57.8154 113.565 57.583C113.483 57.3506 113.372 57.1478 113.23 56.9746C113.089 56.7969 112.911 56.6602 112.697 56.5645C112.483 56.4642 112.23 56.4141 111.938 56.4141C111.642 56.4141 111.385 56.4779 111.166 56.6055C110.947 56.7331 110.767 56.9085 110.626 57.1318C110.489 57.3551 110.387 57.6149 110.318 57.9111C110.25 58.2074 110.216 58.5241 110.216 58.8613ZM121.536 55.2246H123.033V62.416C123.033 63.0814 122.892 63.6465 122.609 64.1113C122.327 64.5762 121.933 64.9294 121.427 65.1709C120.921 65.417 120.335 65.54 119.67 65.54C119.387 65.54 119.073 65.499 118.727 65.417C118.385 65.335 118.052 65.2028 117.729 65.0205C117.41 64.8428 117.143 64.6081 116.929 64.3164L117.701 63.3457C117.965 63.6602 118.257 63.8903 118.576 64.0361C118.895 64.182 119.23 64.2549 119.581 64.2549C119.959 64.2549 120.281 64.1842 120.545 64.043C120.814 63.9062 121.021 63.7035 121.167 63.4346C121.313 63.1657 121.386 62.8376 121.386 62.4502V56.8994L121.536 55.2246ZM116.512 59.0049V58.8613C116.512 58.3008 116.58 57.7904 116.717 57.3301C116.854 56.8652 117.049 56.4665 117.305 56.1338C117.56 55.7965 117.87 55.5391 118.234 55.3613C118.599 55.179 119.011 55.0879 119.472 55.0879C119.95 55.0879 120.358 55.1745 120.695 55.3477C121.037 55.5208 121.322 55.7692 121.55 56.0928C121.778 56.4118 121.955 56.7946 122.083 57.2412C122.215 57.6833 122.313 58.1755 122.377 58.7178V59.1758C122.318 59.7044 122.217 60.1875 122.076 60.625C121.935 61.0625 121.748 61.4408 121.516 61.7598C121.283 62.0788 120.996 62.3249 120.654 62.498C120.317 62.6712 119.918 62.7578 119.458 62.7578C119.007 62.7578 118.599 62.6644 118.234 62.4775C117.874 62.2907 117.564 62.0286 117.305 61.6914C117.049 61.3542 116.854 60.9577 116.717 60.502C116.58 60.0417 116.512 59.5426 116.512 59.0049ZM118.159 58.8613V59.0049C118.159 59.3421 118.191 59.6566 118.255 59.9482C118.323 60.2399 118.426 60.4974 118.562 60.7207C118.704 60.9395 118.882 61.1126 119.096 61.2402C119.314 61.3633 119.572 61.4248 119.868 61.4248C120.256 61.4248 120.572 61.3428 120.818 61.1787C121.069 61.0146 121.26 60.7936 121.393 60.5156C121.529 60.2331 121.625 59.9186 121.68 59.5723V58.335C121.652 58.0661 121.595 57.8154 121.509 57.583C121.427 57.3506 121.315 57.1478 121.174 56.9746C121.033 56.7969 120.855 56.6602 120.641 56.5645C120.426 56.4642 120.174 56.4141 119.882 56.4141C119.586 56.4141 119.328 56.4779 119.109 56.6055C118.891 56.7331 118.711 56.9085 118.569 57.1318C118.433 57.3551 118.33 57.6149 118.262 57.9111C118.193 58.2074 118.159 58.5241 118.159 58.8613ZM126.396 56.6328V62.6211H124.749V55.2246H126.321L126.396 56.6328ZM128.659 55.1768L128.646 56.708C128.545 56.6898 128.436 56.6761 128.317 56.667C128.203 56.6579 128.09 56.6533 127.976 56.6533C127.693 56.6533 127.445 56.6943 127.23 56.7764C127.016 56.8538 126.836 56.9678 126.69 57.1182C126.549 57.264 126.44 57.4417 126.362 57.6514C126.285 57.861 126.239 58.0957 126.226 58.3555L125.85 58.3828C125.85 57.918 125.895 57.4873 125.986 57.0908C126.077 56.6943 126.214 56.3457 126.396 56.0449C126.583 55.7441 126.816 55.5094 127.094 55.3408C127.376 55.1722 127.702 55.0879 128.071 55.0879C128.172 55.0879 128.279 55.097 128.393 55.1152C128.511 55.1335 128.6 55.154 128.659 55.1768ZM132.815 62.7578C132.269 62.7578 131.774 62.6689 131.332 62.4912C130.895 62.3089 130.521 62.056 130.211 61.7324C129.906 61.4089 129.671 61.0283 129.507 60.5908C129.343 60.1533 129.261 59.6816 129.261 59.1758V58.9023C129.261 58.3236 129.345 57.7995 129.514 57.3301C129.682 56.8607 129.917 56.4596 130.218 56.127C130.519 55.7897 130.874 55.5322 131.284 55.3545C131.694 55.1768 132.139 55.0879 132.617 55.0879C133.146 55.0879 133.608 55.1768 134.005 55.3545C134.401 55.5322 134.729 55.7829 134.989 56.1064C135.254 56.4255 135.45 56.806 135.577 57.248C135.709 57.6901 135.775 58.1777 135.775 58.7109V59.415H130.061V58.2324H134.148V58.1025C134.139 57.8063 134.08 57.5283 133.971 57.2686C133.866 57.0088 133.704 56.7992 133.485 56.6396C133.267 56.4801 132.975 56.4004 132.61 56.4004C132.337 56.4004 132.093 56.4596 131.879 56.5781C131.669 56.6921 131.494 56.8584 131.353 57.0771C131.211 57.2959 131.102 57.5602 131.024 57.8701C130.951 58.1755 130.915 58.5195 130.915 58.9023V59.1758C130.915 59.4993 130.958 59.8001 131.045 60.0781C131.136 60.3516 131.268 60.5908 131.441 60.7959C131.615 61.001 131.824 61.1628 132.07 61.2812C132.316 61.3952 132.597 61.4521 132.911 61.4521C133.308 61.4521 133.661 61.3724 133.971 61.2129C134.281 61.0534 134.549 60.8278 134.777 60.5361L135.646 61.377C135.486 61.6094 135.279 61.8327 135.023 62.0469C134.768 62.2565 134.456 62.4274 134.087 62.5596C133.722 62.6917 133.299 62.7578 132.815 62.7578ZM141.798 55.2246H143.295V62.416C143.295 63.0814 143.154 63.6465 142.871 64.1113C142.589 64.5762 142.194 64.9294 141.688 65.1709C141.183 65.417 140.597 65.54 139.932 65.54C139.649 65.54 139.335 65.499 138.988 65.417C138.646 65.335 138.314 65.2028 137.99 65.0205C137.671 64.8428 137.405 64.6081 137.19 64.3164L137.963 63.3457C138.227 63.6602 138.519 63.8903 138.838 64.0361C139.157 64.182 139.492 64.2549 139.843 64.2549C140.221 64.2549 140.542 64.1842 140.807 64.043C141.076 63.9062 141.283 63.7035 141.429 63.4346C141.575 63.1657 141.647 62.8376 141.647 62.4502V56.8994L141.798 55.2246ZM136.773 59.0049V58.8613C136.773 58.3008 136.842 57.7904 136.979 57.3301C137.115 56.8652 137.311 56.4665 137.566 56.1338C137.822 55.7965 138.132 55.5391 138.496 55.3613C138.861 55.179 139.273 55.0879 139.733 55.0879C140.212 55.0879 140.62 55.1745 140.957 55.3477C141.299 55.5208 141.584 55.7692 141.812 56.0928C142.039 56.4118 142.217 56.7946 142.345 57.2412C142.477 57.6833 142.575 58.1755 142.639 58.7178V59.1758C142.579 59.7044 142.479 60.1875 142.338 60.625C142.197 61.0625 142.01 61.4408 141.777 61.7598C141.545 62.0788 141.258 62.3249 140.916 62.498C140.579 62.6712 140.18 62.7578 139.72 62.7578C139.269 62.7578 138.861 62.6644 138.496 62.4775C138.136 62.2907 137.826 62.0286 137.566 61.6914C137.311 61.3542 137.115 60.9577 136.979 60.502C136.842 60.0417 136.773 59.5426 136.773 59.0049ZM138.421 58.8613V59.0049C138.421 59.3421 138.453 59.6566 138.517 59.9482C138.585 60.2399 138.688 60.4974 138.824 60.7207C138.965 60.9395 139.143 61.1126 139.357 61.2402C139.576 61.3633 139.834 61.4248 140.13 61.4248C140.517 61.4248 140.834 61.3428 141.08 61.1787C141.331 61.0146 141.522 60.7936 141.654 60.5156C141.791 60.2331 141.887 59.9186 141.941 59.5723V58.335C141.914 58.0661 141.857 57.8154 141.771 57.583C141.688 57.3506 141.577 57.1478 141.436 56.9746C141.294 56.7969 141.117 56.6602 140.902 56.5645C140.688 56.4642 140.435 56.4141 140.144 56.4141C139.847 56.4141 139.59 56.4779 139.371 56.6055C139.152 56.7331 138.972 56.9085 138.831 57.1318C138.694 57.3551 138.592 57.6149 138.523 57.9111C138.455 58.2074 138.421 58.5241 138.421 58.8613ZM149.174 61.1377V57.6104C149.174 57.346 149.126 57.1182 149.03 56.9268C148.935 56.7354 148.789 56.5872 148.593 56.4824C148.401 56.3776 148.16 56.3252 147.868 56.3252C147.599 56.3252 147.367 56.3708 147.171 56.4619C146.975 56.5531 146.822 56.6761 146.713 56.8311C146.604 56.986 146.549 57.1615 146.549 57.3574H144.908C144.908 57.0658 144.979 56.7832 145.12 56.5098C145.261 56.2363 145.466 55.9925 145.735 55.7783C146.004 55.5641 146.326 55.3955 146.699 55.2725C147.073 55.1494 147.492 55.0879 147.957 55.0879C148.513 55.0879 149.005 55.1813 149.434 55.3682C149.867 55.555 150.206 55.8376 150.452 56.2158C150.703 56.5895 150.828 57.0589 150.828 57.624V60.9121C150.828 61.2493 150.851 61.5524 150.896 61.8213C150.947 62.0856 151.017 62.3158 151.108 62.5117V62.6211H149.42C149.342 62.4434 149.281 62.2178 149.235 61.9443C149.194 61.6663 149.174 61.3975 149.174 61.1377ZM149.413 58.123L149.427 59.1416H148.244C147.939 59.1416 147.67 59.1712 147.438 59.2305C147.205 59.2852 147.011 59.3672 146.856 59.4766C146.701 59.5859 146.585 59.7181 146.508 59.873C146.43 60.028 146.392 60.2035 146.392 60.3994C146.392 60.5954 146.437 60.7754 146.528 60.9395C146.619 61.099 146.752 61.2243 146.925 61.3154C147.103 61.4066 147.317 61.4521 147.567 61.4521C147.905 61.4521 148.199 61.3838 148.449 61.2471C148.704 61.1058 148.905 60.9349 149.051 60.7344C149.197 60.5293 149.274 60.3356 149.283 60.1533L149.816 60.8848C149.762 61.0716 149.668 61.2721 149.536 61.4863C149.404 61.7005 149.231 61.9056 149.017 62.1016C148.807 62.293 148.554 62.4502 148.258 62.5732C147.966 62.6963 147.629 62.7578 147.246 62.7578C146.763 62.7578 146.332 62.6621 145.954 62.4707C145.576 62.2747 145.28 62.0127 145.065 61.6846C144.851 61.3519 144.744 60.9759 144.744 60.5566C144.744 60.1647 144.817 59.8184 144.963 59.5176C145.113 59.2122 145.332 58.957 145.619 58.752C145.911 58.5469 146.266 58.3919 146.686 58.2871C147.105 58.1777 147.583 58.123 148.121 58.123H149.413ZM155.941 55.2246V56.4277H151.771V55.2246H155.941ZM152.975 53.4131H154.622V60.5771C154.622 60.805 154.654 60.9805 154.718 61.1035C154.786 61.222 154.88 61.3018 154.998 61.3428C155.117 61.3838 155.256 61.4043 155.415 61.4043C155.529 61.4043 155.638 61.3975 155.743 61.3838C155.848 61.3701 155.932 61.3564 155.996 61.3428L156.003 62.6006C155.866 62.6416 155.707 62.6781 155.524 62.71C155.347 62.7419 155.142 62.7578 154.909 62.7578C154.531 62.7578 154.196 62.6917 153.904 62.5596C153.613 62.4229 153.385 62.2018 153.221 61.8965C153.057 61.5911 152.975 61.1855 152.975 60.6797V53.4131ZM156.734 59.0049V58.8477C156.734 58.3145 156.812 57.82 156.967 57.3643C157.122 56.904 157.345 56.5052 157.637 56.168C157.933 55.8262 158.293 55.5618 158.717 55.375C159.145 55.1836 159.628 55.0879 160.166 55.0879C160.708 55.0879 161.191 55.1836 161.615 55.375C162.044 55.5618 162.406 55.8262 162.702 56.168C162.998 56.5052 163.224 56.904 163.379 57.3643C163.534 57.82 163.611 58.3145 163.611 58.8477V59.0049C163.611 59.5381 163.534 60.0326 163.379 60.4883C163.224 60.944 162.998 61.3428 162.702 61.6846C162.406 62.0218 162.046 62.2861 161.622 62.4775C161.198 62.6644 160.717 62.7578 160.18 62.7578C159.637 62.7578 159.152 62.6644 158.724 62.4775C158.3 62.2861 157.94 62.0218 157.644 61.6846C157.347 61.3428 157.122 60.944 156.967 60.4883C156.812 60.0326 156.734 59.5381 156.734 59.0049ZM158.382 58.8477V59.0049C158.382 59.3376 158.416 59.652 158.484 59.9482C158.553 60.2445 158.66 60.5042 158.806 60.7275C158.951 60.9508 159.138 61.1263 159.366 61.2539C159.594 61.3815 159.865 61.4453 160.18 61.4453C160.485 61.4453 160.749 61.3815 160.973 61.2539C161.201 61.1263 161.387 60.9508 161.533 60.7275C161.679 60.5042 161.786 60.2445 161.854 59.9482C161.927 59.652 161.964 59.3376 161.964 59.0049V58.8477C161.964 58.5195 161.927 58.2096 161.854 57.918C161.786 57.6217 161.677 57.3597 161.526 57.1318C161.381 56.904 161.194 56.7262 160.966 56.5986C160.743 56.4665 160.476 56.4004 160.166 56.4004C159.856 56.4004 159.587 56.4665 159.359 56.5986C159.136 56.7262 158.951 56.904 158.806 57.1318C158.66 57.3597 158.553 57.6217 158.484 57.918C158.416 58.2096 158.382 58.5195 158.382 58.8477ZM166.646 56.6328V62.6211H164.999V55.2246H166.571L166.646 56.6328ZM168.909 55.1768L168.896 56.708C168.795 56.6898 168.686 56.6761 168.567 56.667C168.453 56.6579 168.34 56.6533 168.226 56.6533C167.943 56.6533 167.695 56.6943 167.48 56.7764C167.266 56.8538 167.086 56.9678 166.94 57.1182C166.799 57.264 166.69 57.4417 166.612 57.6514C166.535 57.861 166.489 58.0957 166.476 58.3555L166.1 58.3828C166.1 57.918 166.145 57.4873 166.236 57.0908C166.327 56.6943 166.464 56.3457 166.646 56.0449C166.833 55.7441 167.066 55.5094 167.344 55.3408C167.626 55.1722 167.952 55.0879 168.321 55.0879C168.422 55.0879 168.529 55.097 168.643 55.1152C168.761 55.1335 168.85 55.154 168.909 55.1768Z" fill="#FFAB02"/>
</svg>
