<svg width="200" height="70" viewBox="0 0 200 70" fill="none" xmlns="http://www.w3.org/2000/svg">
<path fill-rule="evenodd" clip-rule="evenodd" d="M56.0432 3.37887C53.6226 4.02784 51.9126 5.03475 49.98 6.9488C48.6148 8.30099 48.0878 8.99788 47.4264 10.3263C45.9948 13.2009 46.0074 13.0364 46.0034 28.8776L46 42.9836H48H50L50.003 29.1746C50.0062 14.1176 50.0198 13.9131 51.1554 11.8244C51.8532 10.5405 53.6256 8.78604 54.9226 8.09529C56.928 7.02681 59.535 6.69876 61.6614 7.24696C64.9222 8.08757 67.4556 10.4324 68.421 13.5029C68.7778 14.6371 68.8 15.5205 68.8 28.5326C68.8 36.1361 68.8546 42.4981 68.9214 42.6704C69.0208 42.9267 69.4012 42.9836 71.0152 42.9836H72.9876L73.0438 28.4817L73.1 13.9798L73.8456 12.434C77.6706 4.50437 88.9462 5.42101 91.4776 13.8673C91.7608 14.8119 91.8 16.646 91.8 28.9632V42.9836H93.8H95.8L95.797 28.6797C95.7938 12.8341 95.8146 13.1243 94.4868 10.4289C91.0758 3.50438 82.2376 0.907704 75.4808 4.84469C74.2538 5.55959 72.5006 7.11134 71.4874 8.37959L70.9 9.11468L69.7932 7.78566C68.3278 6.02603 66.2604 4.58257 64.059 3.78215C62.5236 3.22385 61.9948 3.13258 59.9 3.06527C57.9594 3.0031 57.2212 3.06309 56.0432 3.37887ZM116.8 3.37312C112.341 4.36143 109.2 6.11749 106.09 9.35879C103.7 11.8505 102.041 14.8818 101.154 18.3801C100.539 20.8059 100.536 25.1079 101.147 27.5413C102.999 34.913 108.43 40.3728 115.965 42.4381C117.235 42.7864 118.07 42.8606 120.8 42.8681C123.803 42.8767 124.278 42.8286 126.083 42.3326C129.659 41.3499 132.652 39.5997 135.337 36.9203L136.973 35.287L137.037 38.5582L137.1 41.8292L137.753 42.4063C138.939 43.454 140.499 43.0006 141.013 41.4593C141.376 40.3712 141.128 21.0452 140.727 19.1272C139.13 11.4981 133.556 5.65759 125.883 3.57486C123.588 2.95183 119.146 2.85323 116.8 3.37312ZM125.164 7.53878C128.083 8.35999 130.595 9.89333 132.737 12.1624C134.318 13.8365 135.409 15.6685 136.236 18.0383C136.867 19.8487 136.892 20.0342 136.892 22.9878C136.892 25.9414 136.867 26.1269 136.236 27.9372C135.41 30.3037 134.318 32.1395 132.747 33.8023C129.019 37.747 123.6 39.6403 118.4 38.8145C114.187 38.1456 109.926 35.541 107.622 32.2256C106.688 30.882 105.507 28.2823 105.089 26.6504C104.583 24.6734 104.622 21.0244 105.171 18.9789C105.611 17.3436 106.619 15.1928 107.626 13.7444C109.833 10.5692 113.69 8.10143 117.8 7.23548C119.613 6.85358 123.263 7.00384 125.164 7.53878ZM158.2 25.4558V42.9836H160.415H162.63L162.598 38.9745C162.58 36.7696 162.574 34.8877 162.583 34.7926C162.592 34.6976 163.342 35.2844 164.25 36.0969C165.158 36.9092 167.368 38.791 169.162 40.2788L172.424 42.9836H175.445C177.107 42.9836 178.429 42.9507 178.383 42.9105C178.337 42.8703 176.32 41.2091 173.9 39.2186C171.48 37.2283 168.484 34.7004 167.242 33.6012L164.983 31.6024L166.842 29.8123C167.864 28.8277 170.81 25.9986 173.39 23.5253L178.079 19.0282H175.225H172.371L168.136 23.1559C163.594 27.5817 162.818 28.2898 162.679 28.1352C162.63 28.0808 162.569 23.5372 162.545 18.0383L162.5 8.04045L160.35 7.98423L158.2 7.928V25.4558ZM181.1 20.9997V22.988L187.35 22.9878C190.788 22.9878 193.6 23.0387 193.6 23.1008C193.6 23.163 190.896 26.2695 187.59 30.0043C184.285 33.739 181.296 37.1779 180.947 37.6465C180.433 38.3386 180.302 38.7243 180.246 39.7017C180.164 41.1628 180.573 41.9376 181.726 42.5045C182.445 42.8577 183.084 42.8887 190.75 42.9424L199 43V40.9626L199 38.925L192.2 38.9628C188.46 38.9836 185.4 38.9302 185.4 38.844C185.4 38.7579 188.24 35.4891 191.711 31.58C195.182 27.671 198.208 24.1214 198.435 23.6922C198.987 22.6475 199.005 21.1805 198.475 20.4624C198.255 20.1636 197.72 19.741 197.287 19.5232C196.547 19.151 196.04 19.1239 188.8 19.0694L181.1 19.0116V20.9997ZM149.1 38.6118C148.086 38.9038 147.4 39.7755 147.4 40.7708C147.4 41.2671 147.575 41.6128 148.08 42.1125C148.647 42.6741 148.904 42.7848 149.63 42.7812C150.921 42.7747 151.801 41.9182 151.799 40.6704C151.798 39.8575 151.112 38.8581 150.456 38.7158C150.15 38.6494 149.81 38.5728 149.7 38.5457C149.59 38.5186 149.32 38.5483 149.1 38.6118Z" fill="#1D2023"/>
<path fill-rule="evenodd" clip-rule="evenodd" d="M20.7334 12.1376C21.037 13.2099 20.4217 14.3275 19.3591 14.6338C17.4743 15.1772 13.2728 17.6058 12.2672 22.6797C12.0505 23.7732 10.9963 24.4824 9.91267 24.2637C8.82901 24.045 8.12622 22.9812 8.34295 21.8876C9.73855 14.8461 15.4754 11.5535 18.2596 10.7508C19.3222 10.4444 20.4298 11.0653 20.7334 12.1376Z" fill="#1D2023"/>
<path fill-rule="evenodd" clip-rule="evenodd" d="M21.2105 39.9519C30.2173 39.9519 37.5187 32.584 37.5187 23.4952C37.5187 14.4064 30.2173 7.03846 21.2105 7.03846C12.2038 7.03846 4.90239 14.4064 4.90239 23.4952C4.90239 32.584 12.2038 39.9519 21.2105 39.9519ZM21.2105 43.9904C32.4275 43.9904 41.5207 34.8144 41.5207 23.4952C41.5207 12.176 32.4275 3 21.2105 3C9.99356 3 0.900391 12.176 0.900391 23.4952C0.900391 34.8144 9.99356 43.9904 21.2105 43.9904Z" fill="#FFAB02"/>
<path fill-rule="evenodd" clip-rule="evenodd" d="M8.94463 36.2287C9.71147 37.0317 9.68801 38.31 8.89223 39.0838L3.38948 44.4348C2.59371 45.2086 1.32696 45.1849 0.560126 44.3819C-0.20671 43.5789 -0.183252 42.3006 0.612522 41.5268L6.11527 36.1758C6.91105 35.402 8.17779 35.4256 8.94463 36.2287Z" fill="#FFAB02"/>
<path d="M8.94824 59.75V60.2969C8.94824 61.0488 8.85026 61.7233 8.6543 62.3203C8.45833 62.9173 8.17806 63.4255 7.81348 63.8447C7.45345 64.264 7.02051 64.5853 6.51465 64.8086C6.00879 65.0273 5.44824 65.1367 4.83301 65.1367C4.22233 65.1367 3.66406 65.0273 3.1582 64.8086C2.6569 64.5853 2.22168 64.264 1.85254 63.8447C1.4834 63.4255 1.19629 62.9173 0.991211 62.3203C0.79069 61.7233 0.69043 61.0488 0.69043 60.2969V59.75C0.69043 58.998 0.79069 58.3258 0.991211 57.7334C1.19173 57.1364 1.47428 56.6283 1.83887 56.209C2.20801 55.7852 2.64323 55.4639 3.14453 55.2451C3.65039 55.0218 4.20866 54.9102 4.81934 54.9102C5.43457 54.9102 5.99512 55.0218 6.50098 55.2451C7.00684 55.4639 7.44206 55.7852 7.80664 56.209C8.17122 56.6283 8.4515 57.1364 8.64746 57.7334C8.84798 58.3258 8.94824 58.998 8.94824 59.75ZM7.23242 60.2969V59.7363C7.23242 59.1803 7.17773 58.6904 7.06836 58.2666C6.96354 57.8382 6.80632 57.4805 6.59668 57.1934C6.3916 56.9017 6.13867 56.6829 5.83789 56.5371C5.53711 56.3867 5.19759 56.3115 4.81934 56.3115C4.44108 56.3115 4.10384 56.3867 3.80762 56.5371C3.51139 56.6829 3.25846 56.9017 3.04883 57.1934C2.84375 57.4805 2.68652 57.8382 2.57715 58.2666C2.46777 58.6904 2.41309 59.1803 2.41309 59.7363V60.2969C2.41309 60.8529 2.46777 61.3451 2.57715 61.7734C2.68652 62.2018 2.84603 62.5641 3.05566 62.8604C3.26986 63.152 3.52507 63.373 3.82129 63.5234C4.11751 63.6693 4.45475 63.7422 4.83301 63.7422C5.21582 63.7422 5.55534 63.6693 5.85156 63.5234C6.14779 63.373 6.39844 63.152 6.60352 62.8604C6.80859 62.5641 6.96354 62.2018 7.06836 61.7734C7.17773 61.3451 7.23242 60.8529 7.23242 60.2969ZM12.1338 59.1826V65H10.4863V57.6035H12.0381L12.1338 59.1826ZM11.8398 61.0283L11.3066 61.0215C11.3112 60.4974 11.3841 60.0166 11.5254 59.5791C11.6712 59.1416 11.8717 58.7656 12.127 58.4512C12.3867 58.1367 12.6966 57.8952 13.0566 57.7266C13.4167 57.5534 13.8177 57.4668 14.2598 57.4668C14.6152 57.4668 14.9365 57.5169 15.2236 57.6172C15.5153 57.7129 15.7637 57.8701 15.9688 58.0889C16.1784 58.3076 16.3379 58.5924 16.4473 58.9434C16.5566 59.2897 16.6113 59.7158 16.6113 60.2217V65H14.957V60.2148C14.957 59.8594 14.9046 59.5791 14.7998 59.374C14.6995 59.1644 14.5514 59.0163 14.3555 58.9297C14.1641 58.8385 13.9248 58.793 13.6377 58.793C13.3551 58.793 13.1022 58.8522 12.8789 58.9707C12.6556 59.0892 12.4665 59.251 12.3115 59.4561C12.1611 59.6611 12.0449 59.8981 11.9629 60.167C11.8809 60.4359 11.8398 60.723 11.8398 61.0283ZM20.0566 54.5V65H18.4023V54.5H20.0566ZM23.625 57.6035V65H21.9707V57.6035H23.625ZM21.8613 55.6621C21.8613 55.4115 21.9434 55.2041 22.1074 55.04C22.276 54.8714 22.5085 54.7871 22.8047 54.7871C23.0964 54.7871 23.3265 54.8714 23.4951 55.04C23.6637 55.2041 23.748 55.4115 23.748 55.6621C23.748 55.9082 23.6637 56.1133 23.4951 56.2773C23.3265 56.4414 23.0964 56.5234 22.8047 56.5234C22.5085 56.5234 22.276 56.4414 22.1074 56.2773C21.9434 56.1133 21.8613 55.9082 21.8613 55.6621ZM27.0635 59.1826V65H25.416V57.6035H26.9678L27.0635 59.1826ZM26.7695 61.0283L26.2363 61.0215C26.2409 60.4974 26.3138 60.0166 26.4551 59.5791C26.6009 59.1416 26.8014 58.7656 27.0566 58.4512C27.3164 58.1367 27.6263 57.8952 27.9863 57.7266C28.3464 57.5534 28.7474 57.4668 29.1895 57.4668C29.5449 57.4668 29.8662 57.5169 30.1533 57.6172C30.445 57.7129 30.6934 57.8701 30.8984 58.0889C31.1081 58.3076 31.2676 58.5924 31.377 58.9434C31.4863 59.2897 31.541 59.7158 31.541 60.2217V65H29.8867V60.2148C29.8867 59.8594 29.8343 59.5791 29.7295 59.374C29.6292 59.1644 29.4811 59.0163 29.2852 58.9297C29.0938 58.8385 28.8545 58.793 28.5674 58.793C28.2848 58.793 28.0319 58.8522 27.8086 58.9707C27.5853 59.0892 27.3962 59.251 27.2412 59.4561C27.0908 59.6611 26.9746 59.8981 26.8926 60.167C26.8105 60.4359 26.7695 60.723 26.7695 61.0283ZM36.4834 65.1367C35.9365 65.1367 35.4421 65.0479 35 64.8701C34.5625 64.6878 34.1888 64.4349 33.8789 64.1113C33.5736 63.7878 33.3389 63.4072 33.1748 62.9697C33.0107 62.5322 32.9287 62.0605 32.9287 61.5547V61.2812C32.9287 60.7025 33.013 60.1784 33.1816 59.709C33.3503 59.2396 33.585 58.8385 33.8857 58.5059C34.1865 58.1686 34.542 57.9111 34.9521 57.7334C35.3623 57.5557 35.8066 57.4668 36.2852 57.4668C36.8138 57.4668 37.2764 57.5557 37.6729 57.7334C38.0693 57.9111 38.3975 58.1618 38.6572 58.4854C38.9215 58.8044 39.1175 59.1849 39.2451 59.627C39.3773 60.069 39.4434 60.5566 39.4434 61.0898V61.7939H33.7285V60.6113H37.8164V60.4814C37.8073 60.1852 37.748 59.9072 37.6387 59.6475C37.5339 59.3877 37.3721 59.1781 37.1533 59.0186C36.9346 58.859 36.6429 58.7793 36.2783 58.7793C36.0049 58.7793 35.7611 58.8385 35.5469 58.957C35.3372 59.071 35.1618 59.2373 35.0205 59.4561C34.8792 59.6748 34.7699 59.9391 34.6924 60.249C34.6195 60.5544 34.583 60.8984 34.583 61.2812V61.5547C34.583 61.8783 34.6263 62.179 34.7129 62.457C34.804 62.7305 34.9362 62.9697 35.1094 63.1748C35.2826 63.3799 35.4922 63.5417 35.7383 63.6602C35.9844 63.7741 36.2646 63.8311 36.5791 63.8311C36.9756 63.8311 37.3288 63.7513 37.6387 63.5918C37.9486 63.4323 38.2174 63.2067 38.4453 62.915L39.3135 63.7559C39.154 63.9883 38.9466 64.2116 38.6914 64.4258C38.4362 64.6354 38.124 64.8063 37.7549 64.9385C37.3903 65.0706 36.9665 65.1367 36.4834 65.1367ZM40.7969 64.1797C40.7969 63.9245 40.8835 63.7103 41.0566 63.5371C41.2298 63.3594 41.4645 63.2705 41.7607 63.2705C42.0615 63.2705 42.2962 63.3594 42.4648 63.5371C42.638 63.7103 42.7246 63.9245 42.7246 64.1797C42.7246 64.4349 42.638 64.6491 42.4648 64.8223C42.2962 64.9954 42.0615 65.082 41.7607 65.082C41.4645 65.082 41.2298 64.9954 41.0566 64.8223C40.8835 64.6491 40.7969 64.4349 40.7969 64.1797ZM48.9727 55.0469H50.5039L53.3818 62.7236L56.2529 55.0469H57.7842L53.9834 65H52.7666L48.9727 55.0469ZM48.2754 55.0469H49.7314L49.9844 61.6914V65H48.2754V55.0469ZM57.0254 55.0469H58.4883V65H56.7725V61.6914L57.0254 55.0469ZM64.5312 63.5166V59.9893C64.5312 59.7249 64.4834 59.4971 64.3877 59.3057C64.292 59.1143 64.1462 58.9661 63.9502 58.8613C63.7588 58.7565 63.5173 58.7041 63.2256 58.7041C62.9567 58.7041 62.7243 58.7497 62.5283 58.8408C62.3324 58.932 62.1797 59.055 62.0703 59.21C61.9609 59.3649 61.9062 59.5404 61.9062 59.7363H60.2656C60.2656 59.4447 60.3363 59.1621 60.4775 58.8887C60.6188 58.6152 60.8239 58.3714 61.0928 58.1572C61.3617 57.943 61.6829 57.7744 62.0566 57.6514C62.4303 57.5283 62.8496 57.4668 63.3145 57.4668C63.8704 57.4668 64.3626 57.5602 64.791 57.7471C65.224 57.9339 65.5635 58.2165 65.8096 58.5947C66.0602 58.9684 66.1855 59.4378 66.1855 60.0029V63.291C66.1855 63.6283 66.2083 63.9313 66.2539 64.2002C66.304 64.4645 66.3747 64.6947 66.4658 64.8906V65H64.7773C64.6999 64.8223 64.6383 64.5967 64.5928 64.3232C64.5518 64.0452 64.5312 63.7764 64.5312 63.5166ZM64.7705 60.502L64.7842 61.5205H63.6016C63.2962 61.5205 63.0273 61.5501 62.7949 61.6094C62.5625 61.6641 62.3688 61.7461 62.2139 61.8555C62.0589 61.9648 61.9427 62.097 61.8652 62.252C61.7878 62.4069 61.749 62.5824 61.749 62.7783C61.749 62.9743 61.7946 63.1543 61.8857 63.3184C61.9769 63.4779 62.109 63.6032 62.2822 63.6943C62.46 63.7855 62.6742 63.8311 62.9248 63.8311C63.262 63.8311 63.556 63.7627 63.8066 63.626C64.0618 63.4847 64.2624 63.3138 64.4082 63.1133C64.554 62.9082 64.6315 62.7145 64.6406 62.5322L65.1738 63.2637C65.1191 63.4505 65.0257 63.651 64.8936 63.8652C64.7614 64.0794 64.5882 64.2845 64.374 64.4805C64.1644 64.6719 63.9115 64.8291 63.6152 64.9521C63.3236 65.0752 62.9863 65.1367 62.6035 65.1367C62.1204 65.1367 61.6898 65.041 61.3115 64.8496C60.9333 64.6536 60.637 64.3916 60.4229 64.0635C60.2087 63.7308 60.1016 63.3548 60.1016 62.9355C60.1016 62.5436 60.1745 62.1973 60.3203 61.8965C60.4707 61.5911 60.6895 61.3359 60.9766 61.1309C61.2682 60.9258 61.6237 60.7708 62.043 60.666C62.4622 60.5566 62.9408 60.502 63.4785 60.502H64.7705ZM69.5625 59.0117V65H67.915V57.6035H69.4873L69.5625 59.0117ZM71.8252 57.5557L71.8115 59.0869C71.7113 59.0687 71.6019 59.055 71.4834 59.0459C71.3695 59.0368 71.2555 59.0322 71.1416 59.0322C70.859 59.0322 70.6107 59.0732 70.3965 59.1553C70.1823 59.2327 70.0023 59.3467 69.8564 59.4971C69.7152 59.6429 69.6058 59.8206 69.5283 60.0303C69.4508 60.2399 69.4053 60.4746 69.3916 60.7344L69.0156 60.7617C69.0156 60.2969 69.0612 59.8662 69.1523 59.4697C69.2435 59.0732 69.3802 58.7246 69.5625 58.4238C69.7493 58.123 69.9818 57.8883 70.2598 57.7197C70.5423 57.5511 70.8682 57.4668 71.2373 57.4668C71.3376 57.4668 71.4447 57.4759 71.5586 57.4941C71.6771 57.5124 71.766 57.5329 71.8252 57.5557ZM74.5186 54.5V65H72.8643V54.5H74.5186ZM79.1123 57.6035L75.8926 61.1719L74.1289 62.9766L73.6982 61.582L75.0312 59.9346L77.123 57.6035H79.1123ZM77.4785 65L75.0791 61.5273L76.1182 60.3721L79.3857 65H77.4785ZM83.2822 65.1367C82.7354 65.1367 82.2409 65.0479 81.7988 64.8701C81.3613 64.6878 80.9876 64.4349 80.6777 64.1113C80.3724 63.7878 80.1377 63.4072 79.9736 62.9697C79.8096 62.5322 79.7275 62.0605 79.7275 61.5547V61.2812C79.7275 60.7025 79.8118 60.1784 79.9805 59.709C80.1491 59.2396 80.3838 58.8385 80.6846 58.5059C80.9854 58.1686 81.3408 57.9111 81.751 57.7334C82.1611 57.5557 82.6055 57.4668 83.084 57.4668C83.6126 57.4668 84.0752 57.5557 84.4717 57.7334C84.8682 57.9111 85.1963 58.1618 85.4561 58.4854C85.7204 58.8044 85.9163 59.1849 86.0439 59.627C86.1761 60.069 86.2422 60.5566 86.2422 61.0898V61.7939H80.5273V60.6113H84.6152V60.4814C84.6061 60.1852 84.5469 59.9072 84.4375 59.6475C84.3327 59.3877 84.1709 59.1781 83.9521 59.0186C83.7334 58.859 83.4417 58.7793 83.0771 58.7793C82.8037 58.7793 82.5599 58.8385 82.3457 58.957C82.1361 59.071 81.9606 59.2373 81.8193 59.4561C81.6781 59.6748 81.5687 59.9391 81.4912 60.249C81.4183 60.5544 81.3818 60.8984 81.3818 61.2812V61.5547C81.3818 61.8783 81.4251 62.179 81.5117 62.457C81.6029 62.7305 81.735 62.9697 81.9082 63.1748C82.0814 63.3799 82.291 63.5417 82.5371 63.6602C82.7832 63.7741 83.0635 63.8311 83.3779 63.8311C83.7744 63.8311 84.1276 63.7513 84.4375 63.5918C84.7474 63.4323 85.0163 63.2067 85.2441 62.915L86.1123 63.7559C85.9528 63.9883 85.7454 64.2116 85.4902 64.4258C85.235 64.6354 84.9229 64.8063 84.5537 64.9385C84.1891 65.0706 83.7653 65.1367 83.2822 65.1367ZM90.918 57.6035V58.8066H86.748V57.6035H90.918ZM87.9512 55.792H89.5986V62.9561C89.5986 63.1839 89.6305 63.3594 89.6943 63.4824C89.7627 63.6009 89.8561 63.6807 89.9746 63.7217C90.0931 63.7627 90.2321 63.7832 90.3916 63.7832C90.5055 63.7832 90.6149 63.7764 90.7197 63.7627C90.8245 63.749 90.9089 63.7354 90.9727 63.7217L90.9795 64.9795C90.8428 65.0205 90.6833 65.057 90.501 65.0889C90.3232 65.1208 90.1182 65.1367 89.8857 65.1367C89.5075 65.1367 89.1725 65.0706 88.8809 64.9385C88.5892 64.8018 88.3613 64.5807 88.1973 64.2754C88.0332 63.9701 87.9512 63.5645 87.9512 63.0586V55.792ZM92.2578 64.1797C92.2578 63.9245 92.3444 63.7103 92.5176 63.5371C92.6908 63.3594 92.9255 63.2705 93.2217 63.2705C93.5225 63.2705 93.7572 63.3594 93.9258 63.5371C94.099 63.7103 94.1855 63.9245 94.1855 64.1797C94.1855 64.4349 94.099 64.6491 93.9258 64.8223C93.7572 64.9954 93.5225 65.082 93.2217 65.082C92.9255 65.082 92.6908 64.9954 92.5176 64.8223C92.3444 64.6491 92.2578 64.4349 92.2578 64.1797ZM103.612 56.373L100.639 65H98.8408L102.587 55.0469H103.735L103.612 56.373ZM106.101 65L103.12 56.373L102.99 55.0469H104.146L107.905 65H106.101ZM105.957 61.3086V62.6689H100.543V61.3086H105.957ZM113.593 57.6035H115.09V64.7949C115.09 65.4603 114.949 66.0254 114.666 66.4902C114.383 66.9551 113.989 67.3083 113.483 67.5498C112.978 67.7959 112.392 67.9189 111.727 67.9189C111.444 67.9189 111.13 67.8779 110.783 67.7959C110.441 67.7139 110.109 67.5817 109.785 67.3994C109.466 67.2217 109.2 66.987 108.985 66.6953L109.758 65.7246C110.022 66.0391 110.314 66.2692 110.633 66.415C110.952 66.5609 111.287 66.6338 111.638 66.6338C112.016 66.6338 112.337 66.5632 112.602 66.4219C112.87 66.2852 113.078 66.0824 113.224 65.8135C113.369 65.5446 113.442 65.2165 113.442 64.8291V59.2783L113.593 57.6035ZM108.568 61.3838V61.2402C108.568 60.6797 108.637 60.1693 108.773 59.709C108.91 59.2441 109.106 58.8454 109.361 58.5127C109.617 58.1755 109.926 57.918 110.291 57.7402C110.656 57.5579 111.068 57.4668 111.528 57.4668C112.007 57.4668 112.415 57.5534 112.752 57.7266C113.094 57.8997 113.379 58.1481 113.606 58.4717C113.834 58.7907 114.012 59.1735 114.14 59.6201C114.272 60.0622 114.37 60.5544 114.434 61.0967V61.5547C114.374 62.0833 114.274 62.5664 114.133 63.0039C113.992 63.4414 113.805 63.8197 113.572 64.1387C113.34 64.4577 113.053 64.7038 112.711 64.877C112.374 65.0501 111.975 65.1367 111.515 65.1367C111.063 65.1367 110.656 65.0433 110.291 64.8564C109.931 64.6696 109.621 64.4076 109.361 64.0703C109.106 63.7331 108.91 63.3366 108.773 62.8809C108.637 62.4206 108.568 61.9215 108.568 61.3838ZM110.216 61.2402V61.3838C110.216 61.721 110.248 62.0355 110.312 62.3271C110.38 62.6188 110.482 62.8763 110.619 63.0996C110.76 63.3184 110.938 63.4915 111.152 63.6191C111.371 63.7422 111.629 63.8037 111.925 63.8037C112.312 63.8037 112.629 63.7217 112.875 63.5576C113.126 63.3936 113.317 63.1725 113.449 62.8945C113.586 62.612 113.682 62.2975 113.736 61.9512V60.7139C113.709 60.445 113.652 60.1943 113.565 59.9619C113.483 59.7295 113.372 59.5267 113.23 59.3535C113.089 59.1758 112.911 59.0391 112.697 58.9434C112.483 58.8431 112.23 58.793 111.938 58.793C111.642 58.793 111.385 58.8568 111.166 58.9844C110.947 59.112 110.767 59.2874 110.626 59.5107C110.489 59.734 110.387 59.9938 110.318 60.29C110.25 60.5863 110.216 60.903 110.216 61.2402ZM121.536 57.6035H123.033V64.7949C123.033 65.4603 122.892 66.0254 122.609 66.4902C122.327 66.9551 121.933 67.3083 121.427 67.5498C120.921 67.7959 120.335 67.9189 119.67 67.9189C119.387 67.9189 119.073 67.8779 118.727 67.7959C118.385 67.7139 118.052 67.5817 117.729 67.3994C117.41 67.2217 117.143 66.987 116.929 66.6953L117.701 65.7246C117.965 66.0391 118.257 66.2692 118.576 66.415C118.895 66.5609 119.23 66.6338 119.581 66.6338C119.959 66.6338 120.281 66.5632 120.545 66.4219C120.814 66.2852 121.021 66.0824 121.167 65.8135C121.313 65.5446 121.386 65.2165 121.386 64.8291V59.2783L121.536 57.6035ZM116.512 61.3838V61.2402C116.512 60.6797 116.58 60.1693 116.717 59.709C116.854 59.2441 117.049 58.8454 117.305 58.5127C117.56 58.1755 117.87 57.918 118.234 57.7402C118.599 57.5579 119.011 57.4668 119.472 57.4668C119.95 57.4668 120.358 57.5534 120.695 57.7266C121.037 57.8997 121.322 58.1481 121.55 58.4717C121.778 58.7907 121.955 59.1735 122.083 59.6201C122.215 60.0622 122.313 60.5544 122.377 61.0967V61.5547C122.318 62.0833 122.217 62.5664 122.076 63.0039C121.935 63.4414 121.748 63.8197 121.516 64.1387C121.283 64.4577 120.996 64.7038 120.654 64.877C120.317 65.0501 119.918 65.1367 119.458 65.1367C119.007 65.1367 118.599 65.0433 118.234 64.8564C117.874 64.6696 117.564 64.4076 117.305 64.0703C117.049 63.7331 116.854 63.3366 116.717 62.8809C116.58 62.4206 116.512 61.9215 116.512 61.3838ZM118.159 61.2402V61.3838C118.159 61.721 118.191 62.0355 118.255 62.3271C118.323 62.6188 118.426 62.8763 118.562 63.0996C118.704 63.3184 118.882 63.4915 119.096 63.6191C119.314 63.7422 119.572 63.8037 119.868 63.8037C120.256 63.8037 120.572 63.7217 120.818 63.5576C121.069 63.3936 121.26 63.1725 121.393 62.8945C121.529 62.612 121.625 62.2975 121.68 61.9512V60.7139C121.652 60.445 121.595 60.1943 121.509 59.9619C121.427 59.7295 121.315 59.5267 121.174 59.3535C121.033 59.1758 120.855 59.0391 120.641 58.9434C120.426 58.8431 120.174 58.793 119.882 58.793C119.586 58.793 119.328 58.8568 119.109 58.9844C118.891 59.112 118.711 59.2874 118.569 59.5107C118.433 59.734 118.33 59.9938 118.262 60.29C118.193 60.5863 118.159 60.903 118.159 61.2402ZM126.396 59.0117V65H124.749V57.6035H126.321L126.396 59.0117ZM128.659 57.5557L128.646 59.0869C128.545 59.0687 128.436 59.055 128.317 59.0459C128.203 59.0368 128.09 59.0322 127.976 59.0322C127.693 59.0322 127.445 59.0732 127.23 59.1553C127.016 59.2327 126.836 59.3467 126.69 59.4971C126.549 59.6429 126.44 59.8206 126.362 60.0303C126.285 60.2399 126.239 60.4746 126.226 60.7344L125.85 60.7617C125.85 60.2969 125.895 59.8662 125.986 59.4697C126.077 59.0732 126.214 58.7246 126.396 58.4238C126.583 58.123 126.816 57.8883 127.094 57.7197C127.376 57.5511 127.702 57.4668 128.071 57.4668C128.172 57.4668 128.279 57.4759 128.393 57.4941C128.511 57.5124 128.6 57.5329 128.659 57.5557ZM132.815 65.1367C132.269 65.1367 131.774 65.0479 131.332 64.8701C130.895 64.6878 130.521 64.4349 130.211 64.1113C129.906 63.7878 129.671 63.4072 129.507 62.9697C129.343 62.5322 129.261 62.0605 129.261 61.5547V61.2812C129.261 60.7025 129.345 60.1784 129.514 59.709C129.682 59.2396 129.917 58.8385 130.218 58.5059C130.519 58.1686 130.874 57.9111 131.284 57.7334C131.694 57.5557 132.139 57.4668 132.617 57.4668C133.146 57.4668 133.608 57.5557 134.005 57.7334C134.401 57.9111 134.729 58.1618 134.989 58.4854C135.254 58.8044 135.45 59.1849 135.577 59.627C135.709 60.069 135.775 60.5566 135.775 61.0898V61.7939H130.061V60.6113H134.148V60.4814C134.139 60.1852 134.08 59.9072 133.971 59.6475C133.866 59.3877 133.704 59.1781 133.485 59.0186C133.267 58.859 132.975 58.7793 132.61 58.7793C132.337 58.7793 132.093 58.8385 131.879 58.957C131.669 59.071 131.494 59.2373 131.353 59.4561C131.211 59.6748 131.102 59.9391 131.024 60.249C130.951 60.5544 130.915 60.8984 130.915 61.2812V61.5547C130.915 61.8783 130.958 62.179 131.045 62.457C131.136 62.7305 131.268 62.9697 131.441 63.1748C131.615 63.3799 131.824 63.5417 132.07 63.6602C132.316 63.7741 132.597 63.8311 132.911 63.8311C133.308 63.8311 133.661 63.7513 133.971 63.5918C134.281 63.4323 134.549 63.2067 134.777 62.915L135.646 63.7559C135.486 63.9883 135.279 64.2116 135.023 64.4258C134.768 64.6354 134.456 64.8063 134.087 64.9385C133.722 65.0706 133.299 65.1367 132.815 65.1367ZM141.798 57.6035H143.295V64.7949C143.295 65.4603 143.154 66.0254 142.871 66.4902C142.589 66.9551 142.194 67.3083 141.688 67.5498C141.183 67.7959 140.597 67.9189 139.932 67.9189C139.649 67.9189 139.335 67.8779 138.988 67.7959C138.646 67.7139 138.314 67.5817 137.99 67.3994C137.671 67.2217 137.405 66.987 137.19 66.6953L137.963 65.7246C138.227 66.0391 138.519 66.2692 138.838 66.415C139.157 66.5609 139.492 66.6338 139.843 66.6338C140.221 66.6338 140.542 66.5632 140.807 66.4219C141.076 66.2852 141.283 66.0824 141.429 65.8135C141.575 65.5446 141.647 65.2165 141.647 64.8291V59.2783L141.798 57.6035ZM136.773 61.3838V61.2402C136.773 60.6797 136.842 60.1693 136.979 59.709C137.115 59.2441 137.311 58.8454 137.566 58.5127C137.822 58.1755 138.132 57.918 138.496 57.7402C138.861 57.5579 139.273 57.4668 139.733 57.4668C140.212 57.4668 140.62 57.5534 140.957 57.7266C141.299 57.8997 141.584 58.1481 141.812 58.4717C142.039 58.7907 142.217 59.1735 142.345 59.6201C142.477 60.0622 142.575 60.5544 142.639 61.0967V61.5547C142.579 62.0833 142.479 62.5664 142.338 63.0039C142.197 63.4414 142.01 63.8197 141.777 64.1387C141.545 64.4577 141.258 64.7038 140.916 64.877C140.579 65.0501 140.18 65.1367 139.72 65.1367C139.269 65.1367 138.861 65.0433 138.496 64.8564C138.136 64.6696 137.826 64.4076 137.566 64.0703C137.311 63.7331 137.115 63.3366 136.979 62.8809C136.842 62.4206 136.773 61.9215 136.773 61.3838ZM138.421 61.2402V61.3838C138.421 61.721 138.453 62.0355 138.517 62.3271C138.585 62.6188 138.688 62.8763 138.824 63.0996C138.965 63.3184 139.143 63.4915 139.357 63.6191C139.576 63.7422 139.834 63.8037 140.13 63.8037C140.517 63.8037 140.834 63.7217 141.08 63.5576C141.331 63.3936 141.522 63.1725 141.654 62.8945C141.791 62.612 141.887 62.2975 141.941 61.9512V60.7139C141.914 60.445 141.857 60.1943 141.771 59.9619C141.688 59.7295 141.577 59.5267 141.436 59.3535C141.294 59.1758 141.117 59.0391 140.902 58.9434C140.688 58.8431 140.435 58.793 140.144 58.793C139.847 58.793 139.59 58.8568 139.371 58.9844C139.152 59.112 138.972 59.2874 138.831 59.5107C138.694 59.734 138.592 59.9938 138.523 60.29C138.455 60.5863 138.421 60.903 138.421 61.2402ZM149.174 63.5166V59.9893C149.174 59.7249 149.126 59.4971 149.03 59.3057C148.935 59.1143 148.789 58.9661 148.593 58.8613C148.401 58.7565 148.16 58.7041 147.868 58.7041C147.599 58.7041 147.367 58.7497 147.171 58.8408C146.975 58.932 146.822 59.055 146.713 59.21C146.604 59.3649 146.549 59.5404 146.549 59.7363H144.908C144.908 59.4447 144.979 59.1621 145.12 58.8887C145.261 58.6152 145.466 58.3714 145.735 58.1572C146.004 57.943 146.326 57.7744 146.699 57.6514C147.073 57.5283 147.492 57.4668 147.957 57.4668C148.513 57.4668 149.005 57.5602 149.434 57.7471C149.867 57.9339 150.206 58.2165 150.452 58.5947C150.703 58.9684 150.828 59.4378 150.828 60.0029V63.291C150.828 63.6283 150.851 63.9313 150.896 64.2002C150.947 64.4645 151.017 64.6947 151.108 64.8906V65H149.42C149.342 64.8223 149.281 64.5967 149.235 64.3232C149.194 64.0452 149.174 63.7764 149.174 63.5166ZM149.413 60.502L149.427 61.5205H148.244C147.939 61.5205 147.67 61.5501 147.438 61.6094C147.205 61.6641 147.011 61.7461 146.856 61.8555C146.701 61.9648 146.585 62.097 146.508 62.252C146.43 62.4069 146.392 62.5824 146.392 62.7783C146.392 62.9743 146.437 63.1543 146.528 63.3184C146.619 63.4779 146.752 63.6032 146.925 63.6943C147.103 63.7855 147.317 63.8311 147.567 63.8311C147.905 63.8311 148.199 63.7627 148.449 63.626C148.704 63.4847 148.905 63.3138 149.051 63.1133C149.197 62.9082 149.274 62.7145 149.283 62.5322L149.816 63.2637C149.762 63.4505 149.668 63.651 149.536 63.8652C149.404 64.0794 149.231 64.2845 149.017 64.4805C148.807 64.6719 148.554 64.8291 148.258 64.9521C147.966 65.0752 147.629 65.1367 147.246 65.1367C146.763 65.1367 146.332 65.041 145.954 64.8496C145.576 64.6536 145.28 64.3916 145.065 64.0635C144.851 63.7308 144.744 63.3548 144.744 62.9355C144.744 62.5436 144.817 62.1973 144.963 61.8965C145.113 61.5911 145.332 61.3359 145.619 61.1309C145.911 60.9258 146.266 60.7708 146.686 60.666C147.105 60.5566 147.583 60.502 148.121 60.502H149.413ZM155.941 57.6035V58.8066H151.771V57.6035H155.941ZM152.975 55.792H154.622V62.9561C154.622 63.1839 154.654 63.3594 154.718 63.4824C154.786 63.6009 154.88 63.6807 154.998 63.7217C155.117 63.7627 155.256 63.7832 155.415 63.7832C155.529 63.7832 155.638 63.7764 155.743 63.7627C155.848 63.749 155.932 63.7354 155.996 63.7217L156.003 64.9795C155.866 65.0205 155.707 65.057 155.524 65.0889C155.347 65.1208 155.142 65.1367 154.909 65.1367C154.531 65.1367 154.196 65.0706 153.904 64.9385C153.613 64.8018 153.385 64.5807 153.221 64.2754C153.057 63.9701 152.975 63.5645 152.975 63.0586V55.792ZM156.734 61.3838V61.2266C156.734 60.6934 156.812 60.1989 156.967 59.7432C157.122 59.2829 157.345 58.8841 157.637 58.5469C157.933 58.2051 158.293 57.9408 158.717 57.7539C159.145 57.5625 159.628 57.4668 160.166 57.4668C160.708 57.4668 161.191 57.5625 161.615 57.7539C162.044 57.9408 162.406 58.2051 162.702 58.5469C162.998 58.8841 163.224 59.2829 163.379 59.7432C163.534 60.1989 163.611 60.6934 163.611 61.2266V61.3838C163.611 61.917 163.534 62.4115 163.379 62.8672C163.224 63.3229 162.998 63.7217 162.702 64.0635C162.406 64.4007 162.046 64.665 161.622 64.8564C161.198 65.0433 160.717 65.1367 160.18 65.1367C159.637 65.1367 159.152 65.0433 158.724 64.8564C158.3 64.665 157.94 64.4007 157.644 64.0635C157.347 63.7217 157.122 63.3229 156.967 62.8672C156.812 62.4115 156.734 61.917 156.734 61.3838ZM158.382 61.2266V61.3838C158.382 61.7165 158.416 62.0309 158.484 62.3271C158.553 62.6234 158.66 62.8831 158.806 63.1064C158.951 63.3298 159.138 63.5052 159.366 63.6328C159.594 63.7604 159.865 63.8242 160.18 63.8242C160.485 63.8242 160.749 63.7604 160.973 63.6328C161.201 63.5052 161.387 63.3298 161.533 63.1064C161.679 62.8831 161.786 62.6234 161.854 62.3271C161.927 62.0309 161.964 61.7165 161.964 61.3838V61.2266C161.964 60.8984 161.927 60.5885 161.854 60.2969C161.786 60.0007 161.677 59.7386 161.526 59.5107C161.381 59.2829 161.194 59.1051 160.966 58.9775C160.743 58.8454 160.476 58.7793 160.166 58.7793C159.856 58.7793 159.587 58.8454 159.359 58.9775C159.136 59.1051 158.951 59.2829 158.806 59.5107C158.66 59.7386 158.553 60.0007 158.484 60.2969C158.416 60.5885 158.382 60.8984 158.382 61.2266ZM166.646 59.0117V65H164.999V57.6035H166.571L166.646 59.0117ZM168.909 57.5557L168.896 59.0869C168.795 59.0687 168.686 59.055 168.567 59.0459C168.453 59.0368 168.34 59.0322 168.226 59.0322C167.943 59.0322 167.695 59.0732 167.48 59.1553C167.266 59.2327 167.086 59.3467 166.94 59.4971C166.799 59.6429 166.69 59.8206 166.612 60.0303C166.535 60.2399 166.489 60.4746 166.476 60.7344L166.1 60.7617C166.1 60.2969 166.145 59.8662 166.236 59.4697C166.327 59.0732 166.464 58.7246 166.646 58.4238C166.833 58.123 167.066 57.8883 167.344 57.7197C167.626 57.5511 167.952 57.4668 168.321 57.4668C168.422 57.4668 168.529 57.4759 168.643 57.4941C168.761 57.5124 168.85 57.5329 168.909 57.5557Z" fill="#FFAB02"/>
</svg>
