<?xml version="1.0" encoding="utf-8"?><svg viewBox="0 0 21 22" xmlns="http://www.w3.org/2000/svg" xmlns:xlink="http://www.w3.org/1999/xlink"><style>:root>svg{display:none}:root>svg:target{display:block}</style><svg fill="none" viewBox="0 0 21 22" id="Frame" xmlns="http://www.w3.org/2000/svg"><path opacity=".5" fill-rule="evenodd" clip-rule="evenodd" d="M2.625 10.125a7.875 7.875 0 0 1 15.75 0V14.5h-1.75v-4.375a6.125 6.125 0 0 0-12.25 0V14.5h-1.75v-4.375Z" fill="#FFAB02"/><path fill-rule="evenodd" clip-rule="evenodd" d="M4.375 11.875a1.75 1.75 0 0 0-1.75 1.75v3.5c0 .966.784 1.75 1.75 1.75h1.75a1.75 1.75 0 0 0 1.75-1.75v-3.5a1.75 1.75 0 0 0-1.75-1.75h-1.75Zm10.5 0a1.75 1.75 0 0 0-1.75 1.75v3.5c0 .966.784 1.75 1.75 1.75h1.75a1.75 1.75 0 0 0 1.75-1.75v-3.5a1.75 1.75 0 0 0-1.75-1.75h-1.75Z" fill="#FFAB02"/></svg><svg fill="none" viewBox="0 0 21 22" id="Frame-1" xmlns="http://www.w3.org/2000/svg"><path opacity=".75" fill-rule="evenodd" clip-rule="evenodd" d="M7 3.125H4.375V18c0 .483.392.875.875.875h10.5a.875.875 0 0 0 .875-.875V3.125H14a4.369 4.369 0 0 1-3.5 1.75A4.368 4.368 0 0 1 7 3.125Z" fill="#FFAB02"/><path fill-rule="evenodd" clip-rule="evenodd" d="m1.658 4.484 2.717-1.359v5.469l-.53.265a.875.875 0 0 1-1.174-.392l-1.405-2.81a.875.875 0 0 1 .392-1.173Zm17.684 0-2.717-1.359v5.469l.53.265a.875.875 0 0 0 1.174-.392l1.404-2.81a.875.875 0 0 0-.39-1.173Z" fill="#FFAB02"/></svg><svg fill="none" viewBox="0 0 21 22" id="Frame-10" xmlns="http://www.w3.org/2000/svg"><path opacity=".5" d="M14.406 12.472c-.875-.876-1.09-2.847-3.281-2.847s-2.844 2.409-3.281 2.847C7.407 12.909 5 13.562 5 15.756c0 2.193 2.403 3.281 3.938 2.19 1.534-1.092 2.84-1.095 4.374 0 1.535 1.095 3.938-.001 3.938-2.19 0-2.188-1.969-2.409-2.844-3.284Z" fill="#FFAB02"/><path fill-rule="evenodd" clip-rule="evenodd" d="M7.688 3.5c-1.094 0-1.75 1.094-1.75 2.406 0 1.313.878 3.718 2.625 3.718 1.093 0 1.75-1.312 1.75-2.624 0-1.313-1.094-3.5-2.625-3.5Zm6.125 0c1.093 0 1.75 1.094 1.75 2.406 0 1.313-.879 3.718-2.626 3.718-1.093 0-1.75-1.312-1.75-2.624 0-1.313 1.094-3.5 2.626-3.5ZM19.5 9.356c0-.743-.597-1.481-1.591-1.481-1.591 0-2.784 1.851-2.784 2.961 0 1.296.792 1.851 1.59 1.851 1.353 0 2.785-1.665 2.785-3.331ZM3.591 7.875C2.597 7.875 2 8.613 2 9.355c0 1.667 1.432 3.332 2.785 3.332.798 0 1.59-.555 1.59-1.85 0-1.111-1.193-2.962-2.784-2.962Z" fill="#FFAB02"/></svg><svg fill="none" viewBox="0 0 21 22" id="Frame-11" xmlns="http://www.w3.org/2000/svg"><path d="M5.25 17.126c3.502 0 5.25 1.446 5.25 1.446V5.444S8.75 4 5.25 4c-1.546 0-2.655.175-3.173.277a.41.41 0 0 0-.327.41v12.219c0 .287.273.504.557.454a17.304 17.304 0 0 1 2.943-.234Z" fill="#FFAB02"/><path opacity=".75" fill-rule="evenodd" clip-rule="evenodd" d="M12.25 4.557c-1.166.406-1.75.887-1.75.887v13.128s1.753-1.446 5.255-1.446c1.345 0 2.358.132 2.938.234a.474.474 0 0 0 .557-.455V4.685a.41.41 0 0 0-.327-.408C18.407 4.175 17.3 4 15.755 4c-.307 0-.6.011-.88.031v6.094l-1.313-.875-1.312.875V4.557Z" fill="#FFAB02"/><path opacity=".25" fill-rule="evenodd" clip-rule="evenodd" d="M14.875 4.031v6.094l-1.313-.875-1.312.875V4.557a10.189 10.189 0 0 1 2.625-.526Z" fill="#FFAB02"/></svg><svg fill="none" viewBox="0 0 21 22" id="Frame-12" xmlns="http://www.w3.org/2000/svg"><path opacity=".75" fill-rule="evenodd" clip-rule="evenodd" d="M7 5.75a2.625 2.625 0 0 0-2.625 2.625v7A2.625 2.625 0 0 1 7 12.75h7a2.625 2.625 0 0 1 2.625 2.625v-7A2.625 2.625 0 0 0 14 5.75H7Z" fill="#FFAB02"/><path opacity=".5" d="M4.375 15.375A2.625 2.625 0 0 1 7 12.75h7a2.625 2.625 0 0 1 2.625 2.625v1.75A2.625 2.625 0 0 1 14 19.75H7a2.625 2.625 0 0 1-2.625-2.625v-1.75Z" fill="#FFAB02"/><path fill-rule="evenodd" clip-rule="evenodd" d="M7 5.75a3.5 3.5 0 1 1 7 0h-1.75a1.75 1.75 0 1 0-3.5 0H7Zm-2.625 4.524a2.626 2.626 0 0 0-1.75 2.476v3.5c0 .967.784 1.75 1.75 1.75h.15a2.62 2.62 0 0 1-.15-.875v-6.85ZM16.475 18h.15a1.75 1.75 0 0 0 1.75-1.75v-3.5c0-1.143-.73-2.115-1.75-2.476v6.851c0 .307-.053.602-.15.875ZM9.626 7.5a.875.875 0 0 0-.875.875v.875c0 .483.392.875.875.875h1.75a.875.875 0 0 0 .875-.875v-.875a.875.875 0 0 0-.875-.875h-1.75Z" fill="#FFAB02"/></svg><svg fill="none" viewBox="0 0 21 22" id="Frame-2" xmlns="http://www.w3.org/2000/svg"><path d="M1.754 14.686c.342.08.693.159 1.313.267 1.24.215 2.964.43 4.901.43h10.938a.875.875 0 0 1-.875.876H7.968c-2 0-3.776-.223-5.051-.444-.639-.111-.807-.184-1.163-.267v-.862Z" fill="#FFAB02"/><path opacity=".25" d="M2.916 14.94c1.276.221 3.052.444 5.052.444h10.938v-1.75c-5.464 0-10.4 1.39-15.84.444a22.875 22.875 0 0 1-1.127-.226l-.181.838c.356.083.52.139 1.158.25Z" fill="#FFAB02"/><path opacity=".75" fill-rule="evenodd" clip-rule="evenodd" d="M1.935 13.856c.113-.42.345-.879.783-1.098 0 .146.35.438 1.75.438h2.854c.31 0 .521-.313.406-.6l-.612-1.53c2.124-.834 4.23-1.754 4.352-2.246.438-1.75 1.313-2.625 1.75-3.062.576-.576 1.96.48 2.704 1.047.15.114.273.208.359.265.175.118.463.27.772.433.657.348 1.415.749 1.415.981 0 .132.065.47.145.888.127.667.293 1.535.293 2.074v2.19c-1.896.025-3.78.206-5.661.386-3.393.324-6.773.648-10.178.056a26.468 26.468 0 0 1-1.132-.222ZM15.75 12.75a1.75 1.75 0 1 0 0-3.5 1.75 1.75 0 0 0 0 3.5Z" fill="#FFAB02"/><path opacity=".25" d="M4.468 13.196c-1.4 0-1.75-.292-1.75-.438l4.4-1.688.61 1.526a.437.437 0 0 1-.406.6H4.468ZM17.5 11a1.75 1.75 0 1 1-3.5 0 1.75 1.75 0 0 1 3.5 0Z" fill="#FFAB02"/></svg><svg fill="none" viewBox="0 0 21 22" id="Frame-3" xmlns="http://www.w3.org/2000/svg"><path opacity=".25" fill-rule="evenodd" clip-rule="evenodd" d="M8.313 18.875h4.374a.438.438 0 0 1-.437-.438v-4.375a.438.438 0 0 0-.438-.437H9.188a.438.438 0 0 0-.438.438v4.374a.438.438 0 0 1-.438.438Z" fill="#FFAB02"/><path opacity=".75" d="m3.5 11.875 7-6.125 7 6.125v6.563a.438.438 0 0 1-.438.437h-4.375a.438.438 0 0 1-.437-.438v-4.375a.438.438 0 0 0-.438-.437H9.188a.438.438 0 0 0-.438.438v4.374a.438.438 0 0 1-.438.438H3.939a.438.438 0 0 1-.438-.438v-6.562Z" fill="#FFAB02"/><path d="M2.036 10.455a.437.437 0 0 1 .043-.617l8.134-7.076a.438.438 0 0 1 .575 0l8.133 7.076a.438.438 0 0 1 .043.617l-.565.651a.437.437 0 0 1-.617.044l-6.995-6.07a.437.437 0 0 0-.573 0l-6.996 6.07a.437.437 0 0 1-.617-.044l-.565-.651Z" fill="#FFAB02"/></svg><svg fill="none" viewBox="0 0 21 22" id="Frame-4" xmlns="http://www.w3.org/2000/svg"><path fill-rule="evenodd" clip-rule="evenodd" d="M10.5 12.094v-2.06a2.407 2.407 0 0 0 1.75-2.315v-.657H8.6c-.42 0-.816.105-1.162.29v.367c0 1.255.96 2.286 2.187 2.396v1.87l.875.109Zm-7.036 1.679a.875.875 0 0 1 1.214.24 6.992 6.992 0 0 0 5.822 3.112 6.992 6.992 0 0 0 5.822-3.112.875.875 0 0 1 1.454.974 8.743 8.743 0 0 1-7.276 3.888 8.742 8.742 0 0 1-7.276-3.888.875.875 0 0 1 .24-1.214Zm2.67-4.452A2.473 2.473 0 0 1 7.194 7.5h-.631A3.062 3.062 0 0 0 3.5 10.563v.874c0 .242.196.438.438.438h.874a.438.438 0 0 0 .438-.438v-.874c0-.575.37-1.064.884-1.242Z" fill="#FFAB02"/><path opacity=".6" fill-rule="evenodd" clip-rule="evenodd" d="M17.938 4.875s.38-.381.431-.788c.006-.048-.033-.087-.081-.087h-2.976a3.062 3.062 0 0 0-3.062 3.063v.656c0 1.101-.74 2.03-1.75 2.315v2.06l1.75.219v4.812H14v-4.813s1.313-.874 1.313-2.187V7.062l.291.292a.877.877 0 0 1 .211.342l.128.384a.875.875 0 0 0 1.002.581l.727-.145a.875.875 0 0 0 .703-.858V5.75c0-.438-.438-.875-.438-.875ZM6.124 9.537c0-.946.532-1.769 1.313-2.185v.367c0 1.255.96 2.286 2.187 2.396v1.87l-.875-.11-.398 1.591a.875.875 0 0 0-.02.321l.418 3.338H7l-.42-3.36a.875.875 0 0 1 .01-.28L7 11.439l-.15-.15a2.475 2.475 0 0 1-.725-1.75Zm10.938-2.912a.438.438 0 1 0 0-.875.438.438 0 0 0 0 .875Z" fill="#FFAB02"/><path d="M17.5 6.188a.438.438 0 1 1-.875 0 .438.438 0 0 1 .875 0Z" fill="#FFAB02"/></svg><svg fill="none" viewBox="0 0 21 22" id="Frame-5" xmlns="http://www.w3.org/2000/svg"><path opacity=".5" fill-rule="evenodd" clip-rule="evenodd" d="M5.754 4a.437.437 0 0 0-.433.5l1.625 11.374a.438.438 0 0 0 .433.376h6.242c.217 0 .402-.16.433-.376L15 9.25H6L5.75 7.5h9.5l.429-3a.438.438 0 0 0-.433-.5H5.754Z" fill="#FFAB02"/><path opacity=".75" fill-rule="evenodd" clip-rule="evenodd" d="M6 9.25 5.75 7.5h9.5L15 9.25H6Z" fill="#FFAB02"/><path d="M7.875 16.25h5.25v2.188c0 .724-.588 1.312-1.313 1.312H9.188a1.313 1.313 0 0 1-1.313-1.313V16.25Z" fill="#FFAB02"/></svg><svg fill="none" viewBox="0 0 21 22" id="Frame-6" xmlns="http://www.w3.org/2000/svg"><path opacity=".75" fill-rule="evenodd" clip-rule="evenodd" d="M6.125 16.25A1.75 1.75 0 0 0 4.375 18v1.75h12.25V18a1.75 1.75 0 0 0-1.75-1.75h-8.75Zm4.375 2.625a.875.875 0 1 0 0-1.75.875.875 0 0 0 0 1.75Z" fill="#FFAB02"/><path opacity=".25" d="M11.375 18a.875.875 0 1 1-1.75 0 .875.875 0 0 1 1.75 0Z" fill="#FFAB02"/><path opacity=".5" fill-rule="evenodd" clip-rule="evenodd" d="M4.375 3.125a1.75 1.75 0 0 0-1.75 1.75V9.25c0 .966.784 1.75 1.75 1.75h1.75v4.375h8.75l1.75-12.25H4.375Zm1.75 1.75h-1.75V9.25h1.75V4.875Z" fill="#FFAB02"/><path fill-rule="evenodd" clip-rule="evenodd" d="M15.625 10.125 15.5 11h-5v-.875h5.125ZM16 7.5l-.125.875H10.5V7.5H16Zm.375-2.625-.125.875H10.5v-.875h5.875Z" fill="#FFAB02"/></svg><svg fill="none" viewBox="0 0 21 22" id="Frame-7" xmlns="http://www.w3.org/2000/svg"><path opacity=".75" fill-rule="evenodd" clip-rule="evenodd" d="M10.5 19.276a.717.717 0 0 0 .469-.173c.324-.28.729-.606 1.184-.973 2.678-2.16 7.097-5.724 7.097-9.317 0-2.8-2.231-4.813-4.813-4.813C11.944 4 10.5 6.042 10.5 6.042v13.234Z" fill="#FFAB02"/><path fill-rule="evenodd" clip-rule="evenodd" d="M10.5 6.042S9.059 4 6.562 4C3.982 4 1.75 6.013 1.75 8.813c0 3.593 4.42 7.159 7.099 9.319.454.366.858.692 1.182.971a.717.717 0 0 0 .469.173V6.042Z" fill="#FFAB02"/></svg><svg fill="none" viewBox="0 0 21 22" id="Frame-8" xmlns="http://www.w3.org/2000/svg"><path fill-rule="evenodd" clip-rule="evenodd" d="M16.625 4h1.75c.483 0 .875.392.875.875v5.25a.875.875 0 0 1-.875.875h-7v.875h-1.75v-1.75c0-.483.392-.875.875-.875h7v-3.5h-.875V4Z" fill="#FFAB02"/><path opacity=".75" d="M8.75 12.75c0-.483.392-.875.875-.875h1.75c.483 0 .875.392.875.875v6.125a.875.875 0 0 1-.875.875h-1.75a.875.875 0 0 1-.875-.875V12.75ZM3.5 3.125c0-.483.392-.875.875-.875H15.75c.483 0 .875.392.875.875v3.5a.875.875 0 0 1-.875.875H4.375a.875.875 0 0 1-.875-.875v-3.5Z" fill="#FFAB02"/></svg><svg fill="none" viewBox="0 0 21 22" id="Frame-9" xmlns="http://www.w3.org/2000/svg"><path opacity=".75" fill-rule="evenodd" clip-rule="evenodd" d="M7.389 6.625c-1.945 0-3.889 1.914-3.889 4.594 0 3.445 1.944 7.656 4.278 7.656.642 0 1.166-.232 1.638-.44.385-.17.734-.326 1.084-.326.35 0 .7.155 1.084.325.472.209.996.441 1.638.441 2.334 0 4.278-4.21 4.278-7.656 0-2.68-1.944-4.594-3.889-4.594-1.191 0-1.798.287-2.27.51-.297.14-.54.256-.841.256-.301 0-.544-.115-.842-.256-.47-.223-1.078-.51-2.27-.51Z" fill="#FFAB02"/><path opacity=".5" fill-rule="evenodd" clip-rule="evenodd" d="M13.125 4c-.352 0-.785.191-1.15.603a2.4 2.4 0 0 0-.6 1.585v.931l-.033.016c-.298.14-.54.256-.842.256-.302 0-.545-.115-.842-.256l-.033-.016v-.931a4.15 4.15 0 0 1 1.04-2.747c.62-.697 1.5-1.191 2.46-1.191V4Z" fill="#FFAB02"/><path d="M8.75 5.75c-2.275 0-3.5-1.225-3.5-3.5 2.275 0 3.5 1.225 3.5 3.5Z" fill="#FFAB02"/></svg></svg>